<?xml version="1.0" standalone="no"?>
<!DOCTYPE svg PUBLIC "-//W3C//DTD SVG 20010904//EN"
 "http://www.w3.org/TR/2001/REC-SVG-20010904/DTD/svg10.dtd">
<svg version="1.0" xmlns="http://www.w3.org/2000/svg"
 width="300.000000pt" height="238.000000pt" viewBox="0 0 300.000000 238.000000"
 preserveAspectRatio="xMidYMid meet">
<metadata>
Created by potrace 1.10, written by Peter Selinger 2001-2011
</metadata>
<g transform="translate(0.000000,238.000000) scale(0.050000,-0.050000)"
fill="#000000" stroke="none">
<path d="M3125 4441 c-47 -22 -85 -48 -85 -60 0 -29 40 -25 100 9 187 107 410
-87 341 -297 -19 -56 -30 -67 -65 -58 -34 9 -40 5 -29 -23 7 -20 13 -48 13
-64 0 -17 20 -28 51 -28 38 0 50 9 46 35 -17 110 37 123 135 32 109 -101 165
-121 260 -92 75 23 82 15 37 -44 -51 -67 -34 -127 60 -222 l90 -89 -170 0
c-99 0 -169 -8 -169 -20 0 -12 94 -22 235 -24 129 -2 183 -7 120 -11 -211 -13
-118 -39 180 -50 447 -17 626 28 791 198 121 125 111 205 -40 320 -292 220
-692 221 -989 1 -54 -39 -54 -39 -105 1 -28 22 -126 64 -219 95 l-168 54 0 77
c0 212 -222 350 -420 260z m1549 -420 c130 -79 176 -244 107 -380 -108 -212
-400 -212 -506 -1 -130 259 155 530 399 381z m218 -33 c92 -52 208 -174 208
-218 0 -74 -213 -240 -360 -279 l-50 -13 43 38 c162 141 166 366 10 500 l-53
46 60 -13 c33 -8 97 -35 142 -61z m-829 -105 c-117 -121 -153 -141 -95 -53 26
40 181 170 203 170 3 0 -46 -53 -108 -117z m177 38 c-71 -140 -41 -296 77
-395 71 -60 22 -59 -107 1 -104 49 -230 153 -230 190 0 44 248 283 293 283 4
0 -10 -36 -33 -79z"/>
<path d="M4341 3907 c-135 -173 100 -469 278 -349 43 29 15 46 -41 26 -175
-64 -317 159 -201 316 54 74 22 81 -36 7z"/>
<path d="M4426 3895 c-153 -167 65 -386 225 -226 57 57 62 109 18 192 -38 74
-51 74 -93 -1 -45 -80 -70 -76 -60 10 10 84 -27 94 -90 25z"/>
<path d="M2988 4316 c-8 -13 -5 -27 7 -31 35 -12 6 -65 -35 -65 -19 0 -40 -18
-46 -40 -8 -31 -27 -40 -87 -40 -194 -1 -700 -189 -847 -315 -66 -56 -83 -87
-103 -186 l-25 -119 -76 0 -77 0 91 87 c49 47 90 97 90 111 0 32 -131 -69
-182 -141 l-41 -57 -298 0 c-199 0 -299 -7 -299 -21 0 -15 85 -21 255 -19 336
4 322 6 272 -30 -24 -16 -75 -78 -115 -138 l-72 -108 -121 11 c-94 8 -138 2
-200 -27 l-79 -38 0 -275 0 -275 430 0 430 0 0 276 0 277 -78 43 c-42 24 -100
44 -128 44 -49 0 -50 3 -30 65 12 36 21 90 19 120 -1 54 1 55 118 55 112 0
119 -3 119 -47 0 -235 401 -399 624 -255 168 107 263 415 163 526 -27 29 -29
45 -11 81 12 25 19 68 15 95 -8 69 -8 68 -39 42 -22 -18 -30 -18 -38 2 -7 20
-17 18 -44 -7 -33 -31 -40 -31 -115 8 -102 53 -67 71 174 89 89 6 172 20 186
31 31 25 105 -34 105 -84 0 -18 11 -44 25 -58 14 -14 26 -34 28 -44 1 -10 3
-28 5 -38 10 -85 351 -110 411 -30 48 63 39 105 -19 94 -37 -7 -50 -22 -50
-57 0 -46 -6 -48 -130 -48 -125 0 -130 2 -130 50 0 31 -11 50 -30 50 -16 0
-30 9 -30 20 0 11 53 20 120 20 l120 0 0 71 c0 63 6 71 45 65 35 -5 43 -17 38
-53 -4 -32 2 -45 20 -39 15 5 30 27 33 48 3 22 30 54 59 72 l53 32 -124 25
c-80 16 -124 34 -124 52 0 15 -21 27 -50 27 -31 0 -50 11 -50 30 0 17 -18 30
-40 30 -22 0 -40 13 -40 30 0 36 -32 40 -52 6z m143 -136 c30 0 49 -12 49 -30
0 -16 -13 -30 -28 -30 -16 0 -33 -11 -37 -25 -13 -37 6 -75 37 -75 15 0 28
-13 28 -30 0 -23 -26 -30 -110 -30 -98 0 -110 4 -110 42 0 25 -16 46 -40 52
-22 6 -35 18 -29 27 6 10 23 12 40 6 21 -8 29 3 29 41 0 42 9 52 50 52 33 0
51 12 52 35 3 33 3 33 12 0 5 -21 28 -35 57 -35z m-663 -384 c-5 -68 -42 -103
-88 -83 -95 42 -179 31 -239 -29 -195 -195 78 -489 283 -306 67 60 69 71 51
272 -5 64 113 97 150 42 21 -32 18 -56 -5 -42 -12 8 -20 -27 -20 -90 0 -385
-493 -479 -620 -118 -73 207 140 445 364 407 53 -9 77 -6 69 7 -8 12 2 16 23
11 26 -7 35 -26 32 -71z m-170 -208 c-52 -56 -36 -90 18 -41 50 44 84 42 84
-7 0 -50 -68 -120 -117 -120 -102 0 -137 167 -45 213 77 38 113 11 60 -45z
m-909 -447 c24 -20 31 -70 31 -233 0 -202 -8 -232 -54 -186 -13 13 -73 19
-144 15 l-122 -7 0 213 c0 152 7 217 25 225 43 19 231 0 264 -27z m367 15 c47
-47 32 -441 -16 -426 -66 21 -191 16 -239 -9 -56 -30 -52 -48 -45 201 6 196
10 215 50 234 61 29 221 29 250 0z m-438 -466 c23 -4 57 -17 77 -28 41 -25
-165 -27 -265 -3 l-60 14 70 22 c39 11 85 17 103 12 19 -5 52 -12 75 -17z
m413 8 c141 -36 104 -58 -96 -57 -168 0 -181 3 -146 30 22 16 50 26 62 21 13
-4 35 0 51 10 35 22 24 22 129 -4z"/>
<path d="M3559 3849 c-22 -27 -22 -35 2 -50 40 -25 69 -12 69 31 0 49 -38 59
-71 19z"/>
<path d="M3084 3664 c9 -45 116 -50 116 -6 0 26 -16 35 -61 35 -43 0 -59 -8
-55 -29z"/>
<path d="M1060 3560 c0 -12 105 -20 275 -20 185 1 265 7 245 20 -40 26 -520
26 -520 0z"/>
<path d="M2872 3438 l-52 -62 103 -93 c191 -172 168 -171 344 -9 l113 103 -52
62 c-80 94 -377 94 -456 -1z m348 4 c0 -10 18 -14 40 -8 23 6 40 1 40 -12 0
-30 -116 -20 -144 12 -16 20 -11 26 22 26 23 0 42 -8 42 -18z m-186 -142 c28
-74 15 -74 -73 1 l-69 59 59 0 c49 0 65 -12 83 -60z m101 -10 c-12 -38 -28
-70 -35 -70 -7 0 -23 32 -35 70 -21 69 -20 70 35 70 55 0 56 -1 35 -70z m106
10 c-78 -67 -88 -66 -70 8 11 42 25 52 76 51 l63 -1 -69 -58z"/>
<path d="M4582 3333 c-12 -31 -16 -66 -9 -77 7 -12 15 -69 19 -127 6 -101 68
-208 120 -209 10 0 57 -59 104 -130 48 -72 95 -130 105 -130 83 0 -105 486
-254 657 l-63 73 -22 -57z"/>
<path d="M3460 3250 c0 -20 20 -30 60 -30 40 0 60 10 60 30 0 20 -20 30 -60
30 -40 0 -60 -10 -60 -30z"/>
<path d="M3600 3250 c0 -16 34 -25 100 -25 66 0 100 9 100 25 0 16 -34 25
-100 25 -66 0 -100 -9 -100 -25z"/>
<path d="M4180 3250 c0 -13 27 -25 60 -26 38 -1 60 9 60 26 0 17 -22 27 -60
26 -33 -1 -60 -13 -60 -26z"/>
<path d="M2400 2959 c-49 -39 -49 -40 -10 -64 49 -30 170 -37 170 -10 0 11 14
8 32 -6 25 -22 34 -22 47 -1 11 19 20 20 30 4 7 -12 28 -22 45 -22 29 0 28 4
-2 38 -33 36 -33 39 1 59 20 11 30 27 21 36 -9 8 -33 5 -53 -8 -30 -18 -40
-18 -46 1 -7 18 -17 17 -42 -3 -22 -19 -33 -21 -33 -5 0 17 -11 18 -40 2 -27
-15 -40 -15 -40 -1 0 31 -24 25 -80 -20z"/>
<path d="M1990 2940 c-36 -39 -35 -40 57 -40 l93 0 0 -100 c0 -89 -5 -100 -43
-100 -24 0 -60 -15 -80 -33 -34 -31 -37 -31 -37 0 0 18 -9 33 -21 33 -24 0 8
-70 41 -90 67 -41 210 73 232 186 25 122 -162 233 -242 144z"/>
<path d="M3694 2940 c-14 -54 -34 -52 411 -51 389 1 574 34 259 47 -86 3 -140
14 -133 25 7 12 -92 19 -257 19 -252 0 -270 -3 -280 -40z"/>
<path d="M2940 2881 c-95 -28 -174 -79 -237 -151 -53 -60 -69 -68 -102 -51
-143 77 -401 -63 -401 -217 0 -47 -12 -59 -79 -79 -229 -69 -350 -349 -242
-561 71 -140 120 -151 691 -158 459 -6 503 -9 540 -44 49 -46 173 -100 229
-100 40 0 41 -10 41 -579 0 -520 -10 -645 -48 -585 -8 14 -400 31 -726 31 -35
0 -60 7 -54 16 5 9 1 33 -10 54 -21 38 34 123 79 123 29 0 23 116 -8 134 -39
24 -55 84 -34 124 27 51 -30 129 -85 115 -51 -14 -114 19 -114 58 0 57 -100
83 -138 36 -50 -61 -120 -95 -131 -63 -30 96 -24 139 22 170 83 54 14 219 -83
194 -78 -19 -190 83 -190 174 0 104 -138 151 -203 69 -53 -67 -191 -73 -248
-10 -21 24 -53 37 -73 32 -27 -7 -36 2 -36 38 0 26 -11 54 -25 63 -16 10 -2
19 41 26 89 14 83 48 -10 60 -50 7 -76 20 -76 40 0 17 11 28 25 25 14 -3 25
11 25 31 0 20 11 47 24 60 15 15 16 24 3 24 -12 0 -46 24 -75 53 -74 74 -98
44 -72 -92 11 -59 20 -114 20 -124 0 -9 -161 -17 -359 -17 -217 0 -364 -8
-371 -20 -8 -13 123 -20 378 -20 357 0 390 -3 391 -35 0 -19 3 -101 6 -181 6
-171 -68 -283 -171 -257 -99 25 -153 -137 -66 -194 69 -45 76 -208 12 -248
-89 -56 -25 -194 82 -179 97 13 198 -81 198 -183 0 -130 216 -148 220 -18 1
45 190 13 231 -39 l43 -53 72 44 c63 40 70 52 61 110 -14 87 41 143 62 62 7
-29 3 -65 -9 -79 -36 -43 18 -114 75 -100 56 13 125 -20 125 -61 0 -33 92 -76
122 -58 10 6 18 24 18 40 0 32 11 35 135 37 55 1 85 -7 85 -23 0 -14 9 -25 20
-25 11 0 20 11 20 25 1 17 5 18 15 3 20 -29 16 -28 449 -39 478 -11 690 42
1059 263 62 38 127 68 145 68 17 0 32 11 32 25 1 54 137 162 170 135 17 -14
37 -19 45 -10 8 8 4 19 -10 24 -14 5 -25 19 -25 31 0 12 22 1 50 -25 27 -26
57 -40 65 -32 8 8 -2 24 -22 35 -34 20 -34 23 -1 59 37 41 12 54 -28 14 -19
-19 -24 -16 -24 11 0 34 -3 34 -60 0 -33 -20 -60 -43 -60 -51 0 -9 -25 -16
-55 -16 -50 -1 -141 -39 -95 -40 13 0 13 -6 0 -15 -11 -8 -30 -33 -42 -55 -16
-29 -47 -42 -115 -46 -68 -5 -93 -15 -93 -37 0 -20 11 -27 30 -20 53 21 32 -2
-45 -47 -41 -24 -82 -57 -91 -72 -41 -71 -52 -3 -53 323 -1 193 -2 357 -4 365
-16 108 5 159 71 170 95 15 202 91 256 181 25 42 79 116 120 165 201 240 102
573 -194 652 -76 21 -89 32 -99 90 -30 158 -203 274 -391 263 -105 -6 -123 -1
-174 47 -116 111 -304 161 -446 117z m334 -88 c129 -66 137 -91 57 -158 -40
-32 -94 -101 -120 -152 -35 -70 -65 -100 -119 -120 -70 -25 -89 -50 -55 -71 9
-6 34 2 55 18 54 41 134 37 194 -10 34 -27 56 -33 65 -19 11 18 -40 76 -71 79
-54 5 -62 39 -24 112 131 257 459 283 619 48 66 -97 59 -152 -22 -179 -133
-44 -257 -321 -144 -321 25 0 30 11 21 40 -79 250 348 348 511 118 92 -128 55
-396 -62 -459 -21 -11 -55 -59 -76 -106 -48 -109 -161 -197 -270 -212 l-83
-11 -5 -454 -6 -454 -57 20 c-61 21 -221 -30 -223 -72 -1 -11 -10 -2 -19 20
-9 22 -18 281 -19 575 l-1 535 -49 0 c-138 0 -271 109 -271 221 0 79 62 179
111 179 16 0 29 10 29 22 0 36 -106 1 -145 -48 -33 -43 -43 -96 -35 -192 l4
-48 -481 13 c-669 16 -779 83 -680 415 64 213 376 299 377 103 0 -47 36 -25
57 35 12 35 43 68 72 80 54 20 70 60 24 60 -15 0 -52 -19 -81 -42 -94 -74
-142 11 -84 150 68 162 372 213 372 62 0 -26 10 -70 22 -97 18 -40 16 -59 -10
-96 -35 -51 -44 -157 -12 -157 11 0 20 23 20 51 0 60 82 149 138 149 42 0 75
34 53 55 -7 7 -40 3 -73 -10 -55 -20 -62 -18 -79 28 -91 238 300 442 575 300z
m-1478 -1230 c17 -11 22 -35 13 -70 -19 -77 132 -213 221 -199 92 14 132 -61
62 -116 -69 -54 -65 -241 6 -291 74 -51 51 -139 -34 -130 -92 9 -227 -137
-203 -219 23 -81 -59 -114 -120 -50 -60 65 -231 52 -293 -22 -56 -66 -128 -36
-128 54 0 90 -128 203 -213 188 -84 -15 -112 53 -50 119 59 62 49 243 -16 292
-65 50 -48 109 35 117 95 10 209 133 194 212 -18 101 74 154 125 72 41 -65
249 -58 285 10 27 51 69 63 116 33z m534 -583 c17 -55 111 -102 154 -78 43 24
64 -9 39 -57 -22 -40 21 -165 56 -165 12 0 21 -18 21 -40 0 -26 -13 -40 -38
-40 -42 0 -93 -102 -75 -149 15 -40 -22 -60 -56 -32 -32 26 -171 -21 -171 -58
0 -12 -13 -21 -30 -21 -16 0 -30 12 -30 28 0 40 -89 92 -160 92 -56 0 -59 4
-39 41 16 30 15 60 -1 110 -23 68 -15 109 21 109 11 0 19 -31 19 -68 0 -168
218 -268 350 -161 39 31 39 32 -10 18 -139 -37 -174 -34 -238 24 -80 73 -107
187 -44 187 31 0 42 -12 42 -47 0 -73 66 -120 149 -107 39 6 75 4 81 -6 15
-24 80 -10 78 17 -1 13 -3 54 -5 92 -4 99 -77 177 -170 180 -110 4 -161 63
-79 92 35 12 68 35 74 50 16 42 47 36 62 -11z m-14 -244 c71 -71 -29 -180
-106 -116 -56 47 -23 140 50 140 18 0 43 -11 56 -24z"/>
<path d="M2970 2796 c-72 -25 -150 -93 -150 -130 0 -16 31 -4 83 34 83 60 239
85 266 42 15 -24 91 -42 91 -21 0 59 -193 109 -290 75z"/>
<path d="M2975 2669 c-30 -16 -55 -39 -55 -50 0 -10 -19 -19 -43 -19 -41 0
-41 -2 -10 -37 34 -37 121 -38 144 -1 6 9 23 11 39 5 30 -11 150 33 150 55 0
58 -150 89 -225 47z"/>
<path d="M3455 2609 c-30 -17 -55 -39 -55 -50 0 -27 26 -24 71 10 98 74 286
14 331 -105 14 -37 25 -45 42 -28 102 102 -240 254 -389 173z"/>
<path d="M2022 2229 c-101 -86 -127 -275 -51 -378 45 -60 58 -20 20 60 -58
123 -9 267 105 311 26 10 41 27 34 38 -19 31 -42 24 -108 -31z"/>
<path d="M4146 2170 c85 -125 48 -370 -56 -370 -40 0 -38 24 12 119 47 91 40
136 -39 234 l-51 65 -33 -54 c-18 -30 -27 -58 -19 -64 26 -18 42 -156 21 -170
-58 -35 5 -139 92 -153 198 -32 252 319 68 441 l-49 32 54 -80z"/>
<path d="M2155 2109 c-45 -60 -43 -127 5 -186 53 -63 110 -16 86 71 -8 31 -16
63 -18 71 -2 8 -5 20 -8 25 -3 6 -6 18 -7 28 -6 39 -24 36 -58 -9z"/>
<path d="M2546 2060 c-68 -28 -124 -180 -66 -180 11 0 20 18 20 40 0 105 162
159 237 78 24 -25 44 -33 52 -20 41 67 -133 126 -243 82z"/>
<path d="M1314 1300 c-271 -213 -106 -680 239 -680 94 0 207 35 207 64 0 12
-15 14 -35 6 -358 -151 -691 316 -400 561 74 63 64 107 -11 49z"/>
<path d="M1445 1267 c-60 -25 -17 -44 74 -33 257 30 403 -235 230 -415 -77
-80 -43 -103 35 -24 219 218 -48 589 -339 472z"/>
<path d="M1429 1154 c-138 -119 -53 -354 129 -354 120 0 211 86 211 200 0 169
-211 265 -340 154z m256 -58 c31 -36 51 -156 26 -156 -6 0 -25 29 -43 65 -19
36 -51 77 -71 91 -20 15 -37 35 -37 46 0 32 85 0 125 -46z m-69 -138 c64 -72
65 -76 26 -97 -152 -81 -307 97 -208 238 l34 49 41 -58 c22 -32 71 -91 107
-132z"/>
<path d="M4389 2772 c-193 -84 -240 -321 -97 -491 142 -168 481 -96 520 111
15 82 71 92 104 18 l23 -50 311 0 310 0 0 131 0 130 -315 -5 c-305 -6 -316 -7
-335 -51 -27 -62 -90 -60 -90 3 0 158 -257 279 -431 204z m232 -43 c32 -16 59
-46 59 -65 1 -26 5 -28 17 -8 13 20 26 8 50 -43 155 -326 -293 -550 -454 -226
-102 206 127 446 328 342z m459 -180 c0 -25 26 -30 155 -25 125 5 154 12 149
36 -5 22 -1 24 16 7 83 -81 -11 -158 -154 -126 -36 8 -66 8 -66 0 0 -35 -229
-11 -236 25 -11 56 14 110 35 76 10 -16 31 -22 50 -15 19 7 28 22 21 33 -7 11
-3 20 9 20 11 0 21 -14 21 -31z"/>
<path d="M4685 2401 c-35 -57 -141 -106 -197 -92 -35 8 -48 3 -48 -19 0 -37
102 -41 166 -7 53 28 134 112 134 138 0 32 -29 21 -55 -20z"/>
<path d="M1525 2517 c-27 -27 -10 -77 25 -77 37 0 52 53 22 78 -17 15 -32 14
-47 -1z"/>
<path d="M54 2467 c-36 -36 34 -47 297 -47 244 0 289 5 289 30 0 31 -556 47
-586 17z"/>
<path d="M780 2451 c0 -27 42 -30 295 -26 390 7 386 43 -5 51 -249 4 -290 1
-290 -25z"/>
<path d="M4945 2295 c-94 -118 -123 -293 -68 -422 20 -50 19 -62 -12 -84 -19
-14 -38 -18 -42 -8 -12 36 -43 19 -43 -23 0 -26 10 -39 25 -33 14 5 40 4 58
-3 52 -20 10 -102 -52 -102 -57 0 -72 -53 -17 -64 31 -6 31 -8 0 -40 -19 -18
-34 -48 -34 -67 0 -24 -10 -29 -35 -19 -91 36 -166 35 -208 -2 -24 -23 -71
-38 -114 -38 -65 0 -75 -7 -92 -64 -16 -54 -26 -63 -65 -53 -41 10 -46 4 -46
-51 0 -60 3 -62 85 -62 64 0 92 -10 110 -40 14 -22 47 -40 75 -40 44 0 48 -6
37 -60 -7 -37 -4 -60 10 -60 12 0 42 27 66 60 41 55 54 60 168 60 159 0 242
99 112 133 -118 31 -20 378 101 356 41 -7 56 -1 56 21 0 20 -20 30 -58 30 -60
0 -69 68 -14 104 24 16 25 20 44 361 13 229 3 273 -47 210z m-311 -994 c23
-27 41 -33 57 -20 37 31 89 0 89 -53 0 -35 11 -48 42 -48 24 0 38 -10 33 -25
-6 -17 -68 -27 -195 -31 -207 -6 -261 3 -223 41 12 12 23 46 23 75 0 99 108
137 174 61z"/>
<path d="M915 2264 l-255 -5 0 -60 0 -59 366 0 c287 0 375 6 405 29 97 71 -86
105 -516 95z"/>
<path d="M560 2200 c0 -40 10 -60 30 -60 20 0 30 20 30 60 0 40 -10 60 -30 60
-20 0 -30 -20 -30 -60z"/>
<path d="M450 1840 c-8 -13 100 -20 310 -20 210 0 318 7 310 20 -7 12 -133 20
-310 20 -177 0 -303 -8 -310 -20z"/>
<path d="M5211 1781 c-7 -10 -25 -14 -42 -8 -17 7 -29 0 -29 -18 0 -18 21 -28
60 -28 35 0 60 10 60 25 0 34 -34 54 -49 29z"/>
<path d="M5434 1787 c-39 -39 -8 -62 86 -62 84 0 100 6 100 38 0 43 -21 48
-56 13 -19 -19 -24 -18 -24 2 0 20 -7 21 -26 5 -18 -15 -34 -15 -47 -2 -11 11
-26 14 -33 6z"/>
<path d="M4305 1595 c11 -32 375 -36 375 -3 0 13 -70 23 -192 25 -147 3 -190
-2 -183 -22z"/>
<path d="M2405 1536 c6 -18 52 -26 152 -26 197 0 194 38 -4 46 -121 4 -155 0
-148 -20z"/>
<path d="M2785 1536 c6 -18 52 -26 152 -26 197 0 194 38 -4 46 -121 4 -155 0
-148 -20z"/>
<path d="M2460 1262 c0 -25 92 -39 124 -19 14 9 22 17 16 18 -90 15 -140 15
-140 1z"/>
<path d="M3092 1043 c-7 -11 -48 -17 -92 -13 -44 4 -85 -2 -92 -14 -9 -13 -18
-12 -28 4 -19 31 -100 -9 -100 -50 0 -47 43 -60 205 -61 150 -2 192 12 120 40
-33 13 -32 16 4 43 28 20 33 34 17 50 -14 14 -26 15 -34 1z"/>
<path d="M4679 909 c-18 -22 -30 -24 -40 -8 -10 17 -25 16 -56 -4 -53 -33 -53
-42 -3 -87 43 -39 83 -25 44 14 -13 13 -24 32 -24 43 0 10 19 -5 41 -34 23
-29 55 -53 70 -53 39 0 37 33 -4 48 -30 12 -30 16 2 50 19 22 25 43 15 50 -11
6 -31 -2 -45 -19z"/>
<path d="M2851 773 c-59 -60 -49 -126 36 -224 139 -161 401 44 284 222 -46 71
-249 72 -320 2z m245 -80 c6 -91 5 -93 -53 -93 -33 0 -63 -11 -68 -25 -17 -52
-75 41 -75 120 0 97 -2 95 103 93 l87 -2 6 -93z"/>
<path d="M2727 569 c-18 -48 24 -81 62 -49 24 19 26 32 9 53 -30 36 -56 34
-71 -4z"/>
</g>
</svg>
