<?xml version="1.0" standalone="no"?>
<!DOCTYPE svg PUBLIC "-//W3C//DTD SVG 20010904//EN"
 "http://www.w3.org/TR/2001/REC-SVG-20010904/DTD/svg10.dtd">
<svg version="1.0" xmlns="http://www.w3.org/2000/svg"
 width="300.000000pt" height="238.000000pt" viewBox="0 0 253.000000 230.000000"
 preserveAspectRatio="xMidYMid meet">
<metadata>
Created by potrace 1.10, written by Peter Selinger 2001-2011
</metadata>
<g transform="translate(0.000000,230.000000) scale(0.050000,-0.050000)"
fill="#000000" stroke="none">
<path d="M3649 4391 c-50 -37 -17 -101 53 -101 54 0 75 56 37 101 -30 36 -42
36 -90 0z"/>
<path d="M1947 4299 c-144 -92 -197 -249 -91 -269 101 -19 170 -58 233 -132
83 -99 32 -126 -64 -34 -250 239 -650 86 -599 -229 17 -100 49 -209 53 -175 2
17 8 75 14 130 15 152 40 149 45 -7 5 -176 -11 -244 -53 -228 -21 8 -27 4 -17
-12 9 -14 15 -64 15 -112 0 -135 111 -221 179 -139 15 19 31 22 47 9 17 -14
21 -1 15 50 -5 38 1 69 11 69 11 0 25 17 30 38 6 21 51 56 101 78 199 88 175
328 -30 298 -91 -13 -138 -35 -124 -57 6 -10 4 -17 -6 -15 -67 12 -106 -6
-108 -47 -1 -42 -3 -41 -17 7 -9 28 -14 73 -11 100 3 26 6 76 7 110 2 34 14
63 28 65 219 29 277 26 368 -17 129 -60 220 -25 216 84 -2 76 -59 168 -114
187 -90 30 6 123 102 99 29 -7 55 -10 58 -7 11 16 66 -85 56 -102 -6 -10 -2
-24 9 -31 11 -7 17 -32 13 -56 -4 -24 -2 -91 6 -149 8 -58 10 -110 5 -115 -30
-30 -5 -230 34 -272 23 -25 43 -60 44 -77 1 -17 9 -8 18 19 42 130 22 751 -25
822 -105 155 -307 207 -448 117z m9 -792 c-3 -20 -30 -37 -66 -42 -134 -17
-247 -126 -268 -259 -16 -99 -75 -108 -67 -9 11 130 95 240 235 305 103 48
175 50 166 5z"/>
<path d="M2658 4295 c-146 -99 -158 -140 -157 -523 2 -405 10 -441 77 -350 26
35 35 56 20 47 -22 -13 -23 -10 -6 12 12 16 24 70 26 119 12 218 11 280 -4
280 -9 0 -11 19 -3 42 7 24 15 53 18 65 23 110 70 150 157 135 9 -1 37 -4 63
-6 30 -3 43 -14 36 -31 -5 -15 -15 -22 -21 -16 -10 10 -81 -92 -86 -124 -1 -8
-10 -30 -19 -47 -22 -42 20 -158 58 -158 15 0 23 -12 17 -26 -8 -20 8 -21 79
-5 48 11 74 25 58 31 -38 13 -13 48 39 56 22 4 49 17 60 31 25 30 102 19 167
-24 28 -18 63 -32 80 -33 16 0 32 -18 35 -39 3 -22 22 -52 42 -66 28 -21 30
-30 9 -43 -21 -13 -18 -20 10 -31 35 -15 35 -16 -3 -32 -38 -15 -38 -16 5 -18
25 0 45 -10 45 -21 0 -11 16 -20 35 -20 34 0 43 67 29 234 -20 241 -409 325
-609 131 -95 -93 -147 -66 -64 33 63 74 132 113 233 132 69 13 71 17 55 72
-59 207 -310 307 -481 193z"/>
<path d="M261 4251 c-51 -61 29 -141 90 -90 17 14 28 44 25 67 -7 52 -80 66
-115 23z"/>
<path d="M664 4056 c-34 -34 -34 -838 0 -872 16 -16 108 -24 283 -24 l258 0
-11 -70 c-6 -38 -4 -70 5 -70 9 0 23 -25 30 -55 8 -30 54 -92 102 -137 l87
-81 -49 -97 c-87 -172 -58 -284 75 -294 l86 -6 -7 -92 c-5 -83 -1 -94 40 -105
94 -25 222 -13 296 29 l74 41 -39 114 c-62 184 -15 389 125 549 36 41 56 74
46 74 -11 0 -59 40 -107 90 -56 58 -94 82 -106 70 -13 -13 2 -42 44 -82 59
-58 89 -116 46 -89 -10 6 -14 -6 -8 -27 6 -26 -3 -42 -30 -51 -39 -12 -72 -76
-65 -128 2 -15 -5 -22 -15 -15 -11 6 -24 -11 -29 -39 -5 -27 -1 -55 9 -62 10
-6 14 -23 9 -37 -5 -14 -2 -33 8 -43 10 -10 -34 -20 -106 -24 -69 -3 -128 -10
-133 -14 -19 -19 14 -27 133 -31 101 -4 120 -10 102 -31 -16 -20 -16 -27 1
-27 12 0 22 -9 22 -20 0 -11 -14 -20 -32 -20 -20 0 -28 -11 -21 -30 7 -17 3
-31 -8 -32 -10 -2 -27 -4 -37 -5 -10 -2 -24 -9 -31 -16 -21 -20 -112 31 -102
58 5 13 3 24 -5 22 -47 -7 -69 11 -96 76 -17 40 -26 92 -20 115 5 23 9 47 8
52 -2 6 8 30 21 55 27 49 12 185 -20 185 -50 0 -160 136 -125 156 66 37 21
120 -64 118 -79 -2 -148 57 -148 128 0 35 -17 38 -200 38 -120 0 -200 8 -200
20 0 12 82 20 206 20 288 0 309 12 311 184 l1 136 -259 0 c-159 0 -259 8 -259
20 0 12 89 20 228 20 268 0 292 6 291 77 0 45 -4 48 -25 23 -19 -24 -69 -29
-259 -24 -307 7 -312 44 -6 44 133 0 234 8 241 20 7 12 21 15 31 9 11 -6 21
23 23 65 3 42 9 -63 15 -234 7 -185 19 -306 30 -300 28 15 36 640 8 673 -30
36 -637 39 -673 3z m481 -51 c-58 -4 -152 -4 -210 0 -58 4 -11 8 105 8 116 0
163 -4 105 -8z m-80 -63 c102 -1 175 -10 175 -22 0 -12 -93 -20 -240 -20 -212
0 -264 10 -231 42 5 5 34 8 65 5 31 -2 135 -4 231 -5z m195 -382 c0 -12 -97
-20 -250 -20 -153 0 -250 8 -250 20 0 12 97 20 250 20 153 0 250 -8 250 -20z
m-10 -120 c8 -13 -76 -20 -239 -20 -154 0 -251 8 -251 20 0 12 93 20 239 20
137 0 244 -8 251 -20z"/>
<path d="M4807 3829 c-7 -18 -2 -42 9 -53 29 -29 86 16 71 55 -15 39 -65 37
-80 -2z"/>
<path d="M3611 3716 c-24 -34 -31 -99 -31 -276 0 -340 -28 -320 458 -320 494
0 462 -23 462 325 0 338 34 315 -460 315 -388 0 -398 -1 -429 -44z m749 -15
c0 -10 -16 -23 -35 -28 -20 -6 -14 -9 15 -7 42 3 52 -7 62 -66 8 -43 14 -53
15 -25 7 113 43 31 43 -97 0 -164 -1 -164 -142 12 -78 98 -137 138 -139 95 0
-8 -54 -73 -119 -145 l-118 -130 -62 75 c-79 95 -84 94 -169 -18 l-71 -93 0
199 c0 128 9 208 24 223 29 29 696 34 696 5z"/>
<path d="M3823 3614 c-28 -34 -12 -86 31 -103 43 -16 89 27 82 77 -7 50 -79
66 -113 26z"/>
<path d="M2985 3611 c-14 -17 -23 -36 -20 -42 3 -7 -10 -20 -29 -31 -44 -25
-27 -72 52 -144 34 -30 86 -77 115 -105 29 -27 63 -49 75 -49 12 0 22 -18 22
-40 0 -24 13 -40 33 -40 19 0 28 -5 22 -12 -7 -7 9 -34 36 -61 27 -27 49 -62
49 -79 0 -17 10 -24 21 -17 12 7 16 18 10 25 -6 6 15 39 47 73 68 69 61 184
-19 334 -21 40 -39 87 -39 105 0 17 -15 32 -33 32 -19 0 -48 13 -66 29 -49 45
-245 60 -276 22z m196 -122 c111 -57 218 -227 219 -345 0 -60 -70 -11 -81 56
-23 141 -131 250 -259 265 -48 5 -72 19 -77 44 -8 42 100 31 198 -20z"/>
<path d="M2453 3366 c-29 -29 -14 -226 17 -226 23 0 30 25 30 109 0 102 -18
146 -47 117z"/>
<path d="M1233 3303 c-59 -65 -28 -143 57 -143 54 0 90 36 90 90 0 87 -88 119
-147 53z"/>
<path d="M430 3275 c-100 -273 -131 -523 -93 -753 28 -166 52 -188 57 -51 3
59 -4 113 -15 119 -10 7 -19 26 -19 42 0 19 9 25 25 15 15 -8 12 1 -5 23 -17
22 -20 31 -5 23 17 -11 25 -1 25 31 -1 37 -4 40 -20 16 -15 -23 -19 -14 -20
36 0 39 8 61 20 54 11 -7 21 4 21 24 8 187 33 400 50 428 6 10 6 18 0 18 -7 0
-16 -11 -21 -25z"/>
<path d="M2311 3181 c-8 -13 -28 -19 -43 -13 -15 6 -28 2 -28 -9 0 -10 -37
-19 -82 -19 -49 0 -100 -15 -129 -37 l-48 -38 77 -34 c73 -33 80 -33 154 4 43
22 110 45 150 53 65 11 71 18 62 66 -9 48 -12 49 -35 18 -24 -33 -27 -33 -44
-1 -14 25 -24 28 -34 10z"/>
<path d="M2515 3144 c-8 -33 2 -43 60 -54 38 -7 107 -31 154 -54 l84 -41 78
42 c73 39 76 43 34 55 -25 7 -45 19 -45 28 0 8 -47 20 -105 26 -58 7 -137 18
-177 25 -61 11 -74 7 -83 -27z"/>
<path d="M2982 3050 c-48 -49 -97 -90 -108 -90 -12 0 2 -25 30 -55 82 -89 119
-158 155 -291 33 -127 32 -143 -30 -316 -46 -127 207 -213 374 -127 59 31 60
31 47 -10 -7 -24 -4 -41 9 -41 11 0 21 13 21 28 0 16 38 62 85 103 57 49 71
69 42 61 -42 -13 -42 -11 -16 62 39 110 35 167 -20 277 l-50 97 72 60 c133
109 201 324 82 258 -72 -40 -185 -126 -166 -126 7 0 3 -18 -9 -40 -12 -22 -33
-40 -48 -40 -51 0 -57 -129 -13 -271 37 -118 3 -230 -82 -267 -81 -36 -157
-45 -157 -18 0 11 -15 15 -32 8 -25 -10 -30 -3 -22 28 7 26 0 40 -18 40 -16 0
-28 20 -28 45 0 41 11 46 115 51 179 10 179 38 0 47 -110 7 -143 22 -90 44 20
8 20 10 0 11 -39 3 -29 42 10 43 33 0 33 2 1 26 -21 16 -27 35 -16 53 17 28
-15 93 -86 174 -22 25 -32 53 -23 68 10 15 7 19 -8 10 -46 -29 -21 26 37 81
56 54 79 107 45 107 -9 0 -55 -40 -103 -90z"/>
<path d="M4082 2864 c-30 -56 16 -114 76 -95 34 11 43 27 38 68 -8 67 -83 85
-114 27z"/>
<path d="M4440 2766 c0 -14 217 -158 255 -169 8 -2 31 -25 51 -49 19 -25 53
-51 75 -58 21 -7 39 -24 39 -37 0 -13 33 -55 73 -93 110 -104 49 -1 -81 137
-144 153 -413 328 -412 269z"/>
<path d="M2311 2381 c-8 -12 3 -21 25 -21 81 0 104 -60 104 -277 0 -167 5
-203 30 -203 25 0 30 36 30 207 0 220 22 273 111 273 25 0 30 7 17 20 -14 14
-41 13 -85 -2 -62 -22 -117 -18 -186 11 -18 7 -39 4 -46 -8z"/>
<path d="M580 2037 l0 -317 470 0 470 0 0 199 c0 221 -21 262 -87 171 -51 -70
-61 -158 -23 -190 47 -39 35 -60 -33 -60 -36 0 -74 -15 -89 -35 -25 -33 -27
-33 -27 0 -1 29 -19 35 -100 35 -77 0 -100 -8 -107 -35 -9 -33 -9 -33 -12 0
-4 59 -196 50 -208 -10 l-9 -45 -2 45 c-3 37 -15 45 -70 45 -82 0 -100 16 -62
54 33 32 40 95 9 76 -11 -7 -20 -3 -20 9 0 11 9 21 20 21 11 0 20 14 20 30 0
17 -9 30 -21 30 -11 0 -19 11 -17 25 6 33 -21 96 -57 139 -16 18 -24 49 -19
70 7 29 10 27 12 -9 2 -41 12 -45 104 -45 99 0 102 2 93 50 -5 28 -2 50 8 50
9 0 17 -22 17 -50 0 -47 7 -50 100 -50 96 0 100 2 100 55 l0 55 -230 2 -230 3
0 -318z"/>
<path d="M1060 2290 c0 -47 7 -50 100 -50 93 0 100 3 100 50 0 47 -7 50 -100
50 -93 0 -100 -3 -100 -50z"/>
<path d="M1300 2286 c0 -42 9 -46 100 -46 55 0 100 7 100 15 -2 75 -200 105
-200 31z"/>
<path d="M3831 2321 c-7 -10 14 -34 46 -52 32 -19 73 -60 91 -92 36 -60 72
-75 72 -30 0 25 -165 193 -188 193 -5 0 -15 -8 -21 -19z"/>
<path d="M2317 2286 c-18 -5 -39 -31 -46 -58 -7 -30 -21 -44 -35 -36 -13 9
-17 5 -8 -9 8 -13 30 -23 48 -23 26 0 35 -20 39 -80 3 -50 -4 -80 -19 -80 -13
0 -6 -13 15 -29 22 -17 30 -31 19 -33 -11 -1 -29 -5 -40 -7 -11 -3 -36 -6 -56
-8 -73 -6 -9 -43 75 -43 l86 0 0 180 c0 185 -19 239 -78 226z"/>
<path d="M2565 2275 c-11 -14 -19 -106 -17 -205 l2 -180 85 -3 c47 -1 91 6 97
16 7 11 0 18 -15 16 -41 -5 -117 23 -117 45 0 10 9 13 20 6 11 -7 20 2 20 19
0 17 -11 31 -25 31 -17 1 -15 7 5 20 17 11 22 20 13 20 -10 0 -8 12 5 28 18
21 16 30 -9 40 -48 18 -11 57 44 47 44 -9 46 -7 18 24 -17 19 -31 44 -31 55 0
12 -14 27 -32 34 -41 16 -40 16 -63 -13z"/>
<path d="M222 2205 c-107 -74 -150 -126 -98 -118 14 3 62 37 105 78 43 40 86
68 95 63 9 -6 16 4 16 21 0 40 7 43 -118 -44z"/>
<path d="M3574 2204 c-30 -31 -54 -68 -54 -82 0 -13 32 9 70 49 39 41 70 78
70 82 0 22 -39 0 -86 -49z"/>
<path d="M3873 2184 c42 -42 80 -68 84 -58 10 24 -99 134 -133 134 -16 0 4
-33 49 -76z"/>
<path d="M1880 2127 c-171 -93 -35 -308 225 -355 46 -9 75 -25 75 -43 0 -24
48 -29 280 -29 154 0 280 -8 280 -18 0 -61 -347 -83 -490 -31 -103 37 -150 37
-150 -1 0 -17 18 -30 40 -30 25 0 40 -13 40 -37 0 -25 -14 -36 -45 -35 -74 3
-55 -57 20 -64 39 -4 65 -18 65 -34 0 -157 373 -180 480 -30 24 34 63 60 95
64 67 7 76 67 10 64 -30 -1 -45 10 -45 34 0 21 18 38 45 42 55 7 52 44 -4 52
-75 12 -50 81 34 96 263 47 399 264 224 355 l-97 50 -33 -51 c-18 -28 -64 -78
-101 -110 -71 -63 -94 -156 -38 -156 55 0 31 -35 -35 -50 -113 -26 -441 -30
-540 -6 -90 22 -129 56 -65 56 58 0 32 91 -45 163 -41 38 -89 88 -105 111
l-30 42 -90 -49z m833 -596 c-81 -62 -404 -62 -486 0 -32 24 -2 28 243 28 243
0 275 -4 243 -28z"/>
<path d="M3637 2142 c-107 -87 -62 -482 54 -482 33 0 39 -32 8 -50 -29 -19
-159 118 -159 168 0 23 -9 42 -20 42 -83 0 29 -207 129 -240 78 -25 86 -66 14
-76 -102 -15 -44 -64 77 -64 93 0 120 7 120 30 0 19 -19 30 -51 30 -63 0 -62
65 1 77 74 13 170 133 170 212 0 56 -36 32 -60 -39 -33 -99 -160 -195 -160
-120 0 17 9 30 20 30 107 0 150 386 54 477 -57 53 -134 55 -197 5z"/>
<path d="M940 2040 c0 -137 2 -138 127 -68 114 63 115 71 4 136 -124 73 -131
69 -131 -68z"/>
<path d="M1641 1703 c-25 -48 17 -110 68 -100 56 11 84 67 52 105 -35 43 -95
40 -120 -5z"/>
<path d="M4209 1638 c-25 -39 40 -86 69 -50 14 17 20 40 13 51 -17 27 -65 27
-82 -1z"/>
<path d="M369 1418 c-25 -39 40 -86 69 -50 14 17 20 40 13 51 -17 27 -65 27
-82 -1z"/>
<path d="M2679 1281 c-80 -24 -147 -64 -175 -105 -26 -36 -29 -35 -86 13 -125
105 -319 117 -673 40 -388 -84 -755 -83 -973 3 -27 10 -35 7 -28 -14 32 -96
604 -115 954 -31 125 30 247 51 270 47 32 -7 28 -9 -14 -11 -31 -2 -51 -11
-45 -21 43 -69 -614 -246 -922 -249 l-223 -2 -40 -96 c-30 -70 -51 -95 -82
-95 -25 0 -42 -13 -42 -31 0 -26 20 -29 125 -18 103 12 121 9 100 -13 -34 -36
-35 -500 -1 -534 35 -35 3257 -35 3292 0 34 34 33 499 -1 534 -20 21 -2 24
100 12 123 -14 184 18 84 44 -24 7 -57 49 -82 110 l-43 98 -104 -13 c-223 -28
-547 36 -885 173 -107 43 -228 84 -270 91 -42 7 -81 20 -87 30 -19 30 252 2
442 -46 286 -72 930 -53 930 28 0 11 -24 14 -55 8 -326 -69 -598 -65 -970 16
-234 51 -399 62 -496 32z m-275 -135 c76 -30 84 -30 143 6 101 60 589 18 526
-46 -6 -6 -45 2 -87 16 -117 39 -342 35 -439 -9 -76 -34 -86 -35 -131 -5 -27
17 -102 37 -167 44 -106 11 -162 4 -339 -45 -28 -8 -34 -5 -20 10 73 77 354
93 514 29z m-6 -75 c65 -33 72 -33 140 -1 154 73 358 59 602 -41 61 -25 135
-51 165 -58 30 -6 55 -25 55 -41 0 -16 29 -37 65 -48 l65 -18 -61 -2 c-34 -1
-71 8 -83 20 -143 143 -631 231 -798 144 l-77 -40 -108 50 c-143 65 -473 23
-594 -77 -12 -9 -60 -23 -107 -31 -47 -8 -75 -20 -62 -28 28 -17 -21 -40 -87
-40 -34 1 -37 5 -14 19 16 10 35 15 43 10 7 -5 18 9 24 31 6 22 27 40 48 40
21 0 70 16 109 36 39 20 124 53 189 72 65 20 127 39 138 43 49 20 286 -8 348
-40z m18 -79 c46 -23 65 -24 116 -2 139 58 508 48 508 -14 0 -13 -26 -14 -75
-3 -111 25 -340 20 -369 -9 -33 -33 -168 -30 -276 8 -88 31 -197 30 -355 -3
-38 -8 -65 -6 -65 5 0 11 11 21 25 22 14 2 66 12 115 22 114 24 305 11 376
-26z m-146 -52 c8 -12 -28 -19 -94 -19 -78 1 -95 6 -66 19 56 24 145 24 160 0z
m628 -13 c5 -4 -54 -7 -130 -7 -96 1 -129 6 -108 20 26 17 216 7 238 -13z
m-1508 -37 l-80 -25 60 -10 c33 -6 17 -7 -35 -3 -52 3 -95 -2 -95 -13 0 -23
-399 -25 -436 -2 -16 10 71 22 210 29 130 7 263 21 296 31 33 11 83 19 110 19
38 0 31 -6 -30 -26z m900 -49 c49 -155 319 -144 372 15 7 21 117 14 558 -34
303 -33 611 -66 685 -73 77 -8 129 -22 123 -33 -7 -10 -25 -14 -40 -8 -23 9
-28 -35 -28 -254 0 -252 -2 -265 -40 -265 -38 0 -40 13 -40 265 l0 266 -70 0
-70 0 0 -268 c0 -243 -3 -267 -35 -265 -46 4 -60 92 -51 338 l7 195 -522 0
c-541 0 -603 -8 -589 -80 7 -35 -3 -40 -81 -40 -81 0 -89 5 -89 48 0 70 -16
72 -582 72 l-520 0 14 -148 c19 -213 -4 -372 -53 -372 -37 0 -39 17 -39 260
l0 260 -70 0 -70 0 0 -258 c0 -241 -3 -258 -40 -268 -39 -10 -40 0 -40 256 0
262 -1 267 -45 275 -25 4 18 14 95 23 77 8 365 41 640 71 627 71 604 70 620
22z m1738 18 c125 -1 151 -6 113 -21 -76 -30 -446 -14 -457 20 -8 23 9 26 86
15 53 -7 169 -14 258 -14z m-638 -423 l0 -46 -916 -5 c-801 -5 -917 -2 -927
25 -30 80 -28 80 925 76 l918 -4 0 -46z"/>
<path d="M3140 1179 c373 -143 904 -203 1042 -118 48 30 10 33 -170 12 -218
-25 -462 2 -723 79 -237 70 -283 78 -149 27z"/>
<path d="M1720 1158 c-259 -94 -616 -131 -875 -92 -65 9 -105 8 -105 -4 0
-107 897 -12 1120 119 54 32 -20 20 -140 -23z"/>
<path d="M4881 1171 c-42 -50 -17 -101 49 -101 71 0 94 63 38 104 -45 33 -58
33 -87 -3z"/>
<path d="M4949 869 c-22 -18 -28 -26 -14 -19 14 7 25 8 25 3 0 -20 -117 -133
-138 -133 -12 0 -22 -11 -22 -24 0 -13 -24 -49 -54 -80 -29 -30 -47 -62 -39
-69 17 -17 229 204 279 291 39 67 24 80 -37 31z"/>
<path d="M4533 547 c-24 -25 -13 -67 17 -67 17 0 30 18 30 40 0 40 -21 52 -47
27z"/>
<path d="M180 474 c0 -25 184 -125 284 -155 140 -43 153 -24 21 29 -89 36
-256 109 -290 126 -8 5 -15 5 -15 0z"/>
<path d="M4420 396 c-27 -12 -59 -23 -70 -24 -11 -1 -20 -11 -20 -22 0 -23 -6
-25 110 27 50 22 77 40 60 40 -16 0 -52 -9 -80 -21z"/>
</g>
</svg>
