<?xml version="1.0" standalone="no"?>
<!DOCTYPE svg PUBLIC "-//W3C//DTD SVG 20010904//EN"
 "http://www.w3.org/TR/2001/REC-SVG-20010904/DTD/svg10.dtd">
<svg version="1.0" xmlns="http://www.w3.org/2000/svg"
 width="300.000000pt" height="238.000000pt" viewBox="0 0 260.000000 260.000000"
 preserveAspectRatio="xMidYMid meet">
<metadata>
Created by potrace 1.10, written by Peter Selinger 2001-2011
</metadata>
<g transform="translate(0.000000,260.000000) scale(0.050000,-0.050000)"
fill="#000000" stroke="none">
<path d="M2413 5170 c-7 -16 -35 -30 -62 -30 -46 0 -51 -8 -51 -80 0 -72 5
-80 49 -80 68 0 106 -71 63 -118 -48 -53 68 -165 123 -119 54 46 105 24 105
-44 0 -55 5 -59 80 -59 72 0 80 5 80 49 0 70 71 106 120 61 66 -59 187 47 128
112 -44 49 -19 114 46 122 80 9 83 156 3 156 -29 0 -58 14 -64 30 -9 22 -43
30 -124 30 -102 0 -109 -3 -80 -31 111 -112 -5 -296 -154 -244 -95 33 -129
164 -62 238 32 35 28 37 -78 37 -80 0 -114 -8 -122 -30z"/>
<path d="M2009 4989 c-12 -64 -2 -109 19 -87 22 22 35 158 15 158 -12 0 -27
-32 -34 -71z"/>
<path d="M2120 4723 c0 -44 -111 -76 -150 -43 -38 32 -94 3 -72 -36 24 -43
-66 -130 -117 -114 -41 13 -76 -48 -40 -70 31 -20 2 -160 -33 -160 -16 0 -28
-18 -28 -40 0 -22 12 -40 28 -40 35 0 64 -140 33 -160 -39 -24 -2 -82 38 -60
44 23 134 -63 125 -119 -7 -43 48 -70 63 -32 8 22 27 23 92 7 132 -34 110 -56
-89 -86 -215 -33 -285 -114 -401 -470 -64 -198 -80 -592 -31 -760 51 -172 46
-860 -6 -860 -20 0 -497 -1381 -493 -1430 3 -51 51 -11 76 65 l28 85 141 0
c137 0 140 -1 127 -45 -35 -111 -36 -135 -6 -135 21 0 69 120 164 410 74 225
137 410 141 410 28 0 173 -514 167 -590 -6 -75 -1 -89 32 -94 25 -4 45 -29 55
-71 10 -36 30 -65 47 -65 34 0 36 19 9 89 l-19 51 149 0 149 0 16 -64 c25 -95
74 -102 57 -8 l-14 73 513 -2 c282 -1 517 2 521 6 4 4 -15 165 -42 356 -27
192 -50 356 -50 364 0 8 43 15 96 15 116 0 289 48 324 90 41 49 63 34 51 -35
-50 -284 -57 -378 -39 -565 l18 -200 86 2 c116 2 128 19 104 147 -11 59 -19
179 -18 269 l1 162 29 -82 c63 -176 280 -347 370 -292 34 22 38 19 38 -26 0
-69 32 -63 58 12 24 71 12 106 -31 89 -22 -8 -26 -1 -17 28 10 31 -2 46 -54
68 -96 41 -171 130 -195 233 -12 50 -44 171 -72 270 -64 223 -64 211 0 379 29
76 59 196 65 265 l12 127 102 50 c212 105 213 130 28 439 -121 203 -152 274
-200 460 -81 316 -302 750 -383 750 -45 0 -84 93 -54 129 22 27 32 27 83 0 57
-29 57 -29 88 44 17 40 28 75 25 77 -3 3 -25 15 -50 28 -75 39 -59 102 27 102
66 0 71 4 61 45 -7 25 -13 66 -13 91 0 41 -7 45 -67 33 -89 -16 -121 59 -41
95 59 27 60 43 6 118 l-41 59 -56 -40 c-75 -54 -122 -12 -83 73 26 57 20 67
-64 102 -53 23 -57 21 -77 -37 -15 -41 -31 -58 -51 -50 -16 6 -38 11 -48 11
-10 0 -18 27 -18 60 0 57 -4 60 -83 60 l-82 0 11 -68 c8 -50 3 -72 -19 -80
-49 -19 -59 -15 -83 38 -28 61 -38 61 -113 0 -56 -46 -57 -50 -25 -86 68 -74
21 -139 -68 -93 -55 28 -58 27 -87 -30 -42 -81 -39 -98 19 -113 79 -20 70
-108 -10 -108 -57 0 -60 -4 -60 -80 0 -78 2 -80 68 -80 88 0 115 -70 40 -104
-26 -12 -48 -29 -48 -38 0 -38 40 -34 104 9 75 51 118 46 209 -26 65 -51 242
-73 332 -40 93 33 255 -102 185 -154 -50 -36 -63 -34 -97 15 -45 63 -104 42
-97 -35 5 -55 -1 -63 -58 -74 -91 -19 -98 -17 -98 25 0 113 -82 142 -117 42
l-21 -60 -71 34 c-77 36 -82 48 -50 109 38 69 -11 105 -85 62 -56 -34 -60 -33
-80 2 -19 35 -38 37 -214 24 l-193 -14 2 50 c3 70 88 155 131 132 39 -21 75
38 37 61 -38 24 -1 160 43 160 25 0 38 14 38 40 0 26 -13 40 -38 40 -44 0 -81
136 -43 160 35 21 2 83 -38 70 -43 -13 -126 73 -110 114 14 37 -51 68 -71 35
-24 -38 -160 -1 -160 43 0 25 -14 38 -40 38 -26 0 -40 -13 -40 -37z m213 -245
c182 -170 112 -445 -124 -489 -296 -56 -441 351 -183 513 87 55 235 43 307
-24z m1096 -158 c144 -144 45 -380 -159 -380 -137 0 -220 82 -220 217 0 218
227 315 379 163z m-1062 -468 c12 -33 -27 -52 -107 -52 -78 0 -95 36 -26 51
31 7 65 16 76 19 38 13 46 10 57 -18z m-152 -233 c-34 -83 -56 -54 -31 39 12
45 25 61 38 48 14 -14 11 -43 -7 -87z m-286 2 c35 -68 38 -81 14 -81 -17 0
-63 88 -63 121 0 35 19 20 49 -40z m1751 -62 c0 -33 22 -104 49 -157 27 -54
44 -103 37 -110 -7 -6 -3 -12 9 -12 17 0 55 -80 76 -160 1 -5 8 -23 15 -40 22
-50 74 -266 74 -304 0 -20 10 -36 23 -36 13 0 18 -5 12 -12 -7 -6 35 -90 93
-185 139 -229 148 -268 82 -355 -29 -37 -65 -68 -81 -68 -16 0 -29 -11 -29
-25 0 -14 -18 -37 -41 -51 -22 -14 -36 -33 -29 -43 6 -10 2 -24 -9 -30 -10 -7
-16 -23 -11 -37 4 -13 12 -80 17 -149 9 -125 -12 -169 -35 -75 -15 59 -109 70
-161 19 -17 -18 -32 -24 -34 -15 -1 9 -4 36 -7 61 -2 25 -26 63 -52 85 -27 22
-59 48 -72 60 -65 55 -135 26 -268 -110 -73 -75 -77 -87 -76 -200 1 -104 33
-252 37 -172 2 56 31 -3 31 -65 0 -46 12 -68 45 -83 53 -23 60 -56 10 -46 -40
8 -98 -44 -108 -97 -18 -94 -314 -32 -587 123 -198 114 -192 87 40 -161 50
-53 259 -213 387 -296 l141 -91 -33 -86 c-45 -115 -45 -115 -286 -116 -168 0
-226 -8 -286 -38 l-75 -39 -39 64 c-267 434 -343 1175 -150 1460 l50 73 -55 0
c-145 2 -281 112 -352 288 l-46 112 -34 -76 c-29 -64 -31 -89 -11 -165 26
-101 27 -222 1 -238 -10 -6 -22 -29 -27 -51 -9 -40 -9 -40 -25 0 -9 22 -38 61
-63 88 -26 26 -47 60 -47 74 0 15 -29 82 -63 148 -80 152 -41 197 128 151 54
-15 55 -14 55 74 0 86 2 89 79 112 110 33 181 124 181 232 l0 86 81 -15 c45
-8 107 -39 137 -68 l56 -54 13 169 c7 94 18 184 25 201 8 20 2 32 -16 32 -16
0 -46 14 -67 31 -37 30 -35 31 33 20 50 -8 71 -4 72 14 0 14 11 77 25 142 30
140 28 143 -68 93 -77 -39 -150 -32 -86 8 29 18 26 24 -21 44 -43 18 3 21 226
13 326 -12 745 20 942 73 76 20 145 38 153 39 8 2 15 -24 15 -58z m-1478 -50
c173 -90 177 -269 10 -426 -44 -41 -72 -85 -72 -115 0 -53 -49 -66 -67 -18 -7
17 -23 29 -37 28 -20 -1 -21 -3 -1 -11 41 -17 28 -44 -15 -33 -22 6 -40 23
-40 38 0 16 -16 29 -35 30 -96 7 -96 6 -73 66 8 21 5 84 -6 140 -49 237 137
404 336 301z m-447 -102 c66 -17 56 -54 -10 -38 -64 16 -108 51 -64 51 16 0
49 -6 74 -13z m44 -295 c-41 -39 -119 -60 -119 -32 0 23 123 83 139 68 5 -5
-4 -21 -20 -36z m-35 -159 c-22 -24 -49 -63 -62 -88 -44 -85 -85 -57 -52 35
16 44 24 80 18 80 -6 0 -6 7 0 17 6 9 38 12 72 7 62 -9 62 -9 24 -51z m536
-48 c0 -14 -6 -25 -13 -25 -24 0 -66 70 -66 110 0 37 3 36 39 -10 22 -27 39
-61 40 -75z m-361 58 c-17 -6 -1 -19 41 -33 49 -17 68 -35 64 -59 -4 -21 2
-30 15 -22 11 7 21 -1 21 -19 0 -40 -88 -130 -127 -130 -16 0 -43 -22 -61 -50
-97 -148 -249 -148 -199 0 40 117 99 163 151 116 40 -36 45 -23 37 99 -6 86
16 135 54 120 27 -10 28 -14 4 -22z m114 -859 c-21 -33 117 -146 159 -131 16
6 16 -19 3 -87 -46 -238 -38 -490 23 -719 102 -383 124 -456 153 -515 39 -78
37 -138 -8 -193 l-36 -45 -36 88 c-47 119 -267 783 -302 914 -63 234 -126 307
-166 194 -26 -72 -52 -89 -70 -45 -8 19 -14 20 -27 1 -13 -18 -38 -19 -102 -3
-88 23 -114 57 -43 57 53 0 100 110 114 265 9 99 15 112 40 91 23 -20 27 -51
17 -146 -23 -204 -23 -216 3 -224 13 -5 44 31 69 83 l45 92 35 -45 c19 -25 35
-66 36 -91 0 -53 15 -56 76 -14 45 32 65 124 21 97 -15 -9 -18 -5 -8 10 8 13
6 35 -5 48 -34 43 -43 334 -10 334 16 0 24 -7 19 -16z m1554 -292 c122 -50
145 -207 44 -295 -59 -51 -47 -87 42 -130 50 -24 75 -27 91 -11 28 28 96 -5
96 -46 0 -85 -294 -55 -370 39 -22 26 -65 58 -95 69 -117 44 -59 363 70 388
25 5 48 10 51 11 3 2 35 -9 71 -25z m234 -143 c14 -17 37 -26 52 -21 30 12 56
-20 30 -36 -10 -6 -23 -37 -29 -69 -14 -69 -74 -103 -74 -42 0 21 -9 39 -20
39 -11 0 -20 -9 -20 -20 0 -11 -11 -20 -24 -20 -18 0 -19 5 0 24 17 17 17 30
1 50 -17 21 -16 40 3 77 31 57 46 60 81 18z m-2253 -237 c6 -27 17 -63 24 -80
10 -26 -3 -32 -70 -32 -90 0 -92 4 -60 97 27 77 88 85 106 15z m184 -27 c-17
-49 -38 -75 -62 -75 -24 0 -45 26 -62 75 l-26 75 88 0 88 0 -26 -75z m164 -10
c6 -74 6 -75 -67 -75 -59 0 -71 6 -61 32 7 17 18 54 25 81 20 83 95 55 103
-38z m1436 -20 c-2 -36 7 -44 48 -40 41 4 44 1 17 -15 -63 -38 -134 36 -84 87
20 20 22 17 19 -32z m-1714 -158 c40 -113 36 -117 -129 -117 -167 0 -161 -9
-107 135 30 79 207 66 236 -18z m262 -27 l0 -90 -90 0 c-98 0 -105 11 -68 117
39 113 158 93 158 -27z m109 -45 c11 -35 7 -42 -18 -33 -19 8 -31 36 -30 75 0
66 20 49 48 -42z m1940 36 c40 -44 -13 -72 -112 -58 l-47 7 45 45 c55 55 69
56 114 6z m-2329 -138 c0 -112 -41 -143 -190 -143 l-147 0 32 80 31 80 137 0
c75 0 137 -8 137 -17z m280 0 c0 -132 -73 -189 -117 -92 -39 87 -30 109 47
109 39 0 70 -8 70 -17z m146 2 c50 -84 36 -145 -34 -145 -67 0 -70 3 -53 48
10 26 13 54 5 61 -7 7 0 22 17 32 36 23 54 24 65 4z m-486 -213 c0 -4 -14 -40
-30 -80 l-31 -72 -141 0 c-122 0 -141 5 -130 32 7 17 18 53 24 80 11 43 308
82 308 40z m319 -67 c0 -77 -19 -65 -48 30 -10 33 -6 45 18 45 23 0 31 -20 30
-75z m259 12 c33 -95 31 -97 -97 -97 l-119 0 8 75 c4 41 8 77 9 80 10 45 180
-4 199 -58z m-666 -189 c-7 -17 -18 -53 -24 -80 -11 -45 -308 -81 -308 -37 0
5 13 41 29 80 l29 69 143 0 c123 0 142 -5 131 -32z m741 -48 l21 -80 -134 0
-134 0 -31 80 -32 80 144 0 145 0 21 -80z"/>
<path d="M3600 2706 c-89 -48 -142 -51 -348 -21 -59 8 -61 -42 -2 -65 148 -56
510 21 510 109 0 43 -53 35 -160 -23z"/>
<path d="M1997 3302 l-44 -36 72 -24 c60 -20 83 -19 134 7 68 36 81 61 22 46
-23 -7 -35 -2 -29 12 14 38 -106 34 -155 -5z"/>
<path d="M2023 3134 c-35 -85 -28 -136 9 -68 17 31 27 72 22 90 -6 26 -13 20
-31 -22z"/>
<path d="M3465 1667 c-19 -8 -18 -17 4 -39 33 -33 88 -36 131 -8 57 38 -58 78
-135 47z"/>
<path d="M4360 4320 c0 -32 103 -65 127 -41 13 13 1 26 -35 40 -69 26 -92 26
-92 1z"/>
<path d="M4182 4282 c-30 -23 -39 -41 -26 -50 28 -17 104 29 104 63 0 34 -21
31 -78 -13z"/>
<path d="M4560 4203 c0 -27 99 -111 113 -96 8 7 -7 36 -33 63 -47 50 -80 64
-80 33z"/>
<path d="M4019 4099 c-52 -73 -32 -109 23 -42 34 43 52 103 29 103 -4 0 -28
-28 -52 -61z"/>
<path d="M710 4100 c-15 -25 85 -66 115 -47 13 8 8 23 -16 40 -43 32 -82 35
-99 7z"/>
<path d="M531 4073 c-21 -15 -31 -37 -23 -50 15 -24 110 30 111 62 1 24 -48
17 -88 -12z"/>
<path d="M4720 3985 c0 -35 76 -127 88 -107 15 23 -42 122 -70 122 -10 0 -18
-7 -18 -15z"/>
<path d="M900 3963 c0 -9 22 -36 48 -61 58 -55 94 -20 41 39 -36 39 -89 53
-89 22z"/>
<path d="M374 3870 c-26 -55 -28 -70 -7 -70 34 0 81 100 58 123 -10 10 -32
-14 -51 -53z"/>
<path d="M3883 3859 c-36 -81 -15 -100 26 -22 35 68 38 83 16 83 -8 0 -27 -28
-42 -61z"/>
<path d="M1090 3720 c32 -62 70 -80 70 -33 0 27 -62 93 -87 93 -8 0 0 -27 17
-60z"/>
<path d="M4840 3743 c0 -39 45 -143 62 -143 24 0 23 21 -4 97 -20 57 -58 87
-58 46z"/>
<path d="M260 3629 c-24 -63 -25 -89 -3 -89 17 0 63 88 63 121 0 39 -42 17
-60 -32z"/>
<path d="M1221 3546 c-1 -36 43 -126 62 -126 9 0 17 13 17 28 0 34 -78 131
-79 98z"/>
<path d="M4940 3425 c1 -65 29 -119 47 -89 17 27 -7 144 -29 144 -10 0 -18
-25 -18 -55z"/>
<path d="M180 3370 c-24 -64 -26 -110 -3 -110 9 0 26 31 38 70 25 83 -5 118
-35 40z"/>
<path d="M710 3341 c-63 -26 -144 -123 -180 -215 -52 -131 -29 -132 80 -6 145
169 200 174 497 47 126 -54 173 -65 230 -54 l72 13 -69 25 c-39 13 -155 66
-259 117 -187 92 -281 110 -371 73z"/>
<path d="M4100 3321 c0 -21 26 -30 170 -61 187 -41 319 -171 404 -400 73 -197
85 -247 106 -450 49 -460 115 -580 92 -165 -42 728 -265 1094 -667 1095 -58 0
-105 -8 -105 -19z"/>
<path d="M5004 3152 c3 -44 18 -83 33 -88 21 -7 24 7 13 59 -22 102 -54 122
-46 29z"/>
<path d="M137 3130 c-7 -11 -19 -49 -26 -85 -17 -76 21 -92 40 -17 14 57 4
131 -14 102z"/>
<path d="M760 2919 c0 -53 -51 -71 -110 -39 -71 38 -178 -7 -145 -61 27 -43
-46 -117 -118 -118 -66 -1 -104 -59 -60 -91 49 -36 8 -190 -50 -190 -24 0 -37
-14 -37 -40 0 -26 13 -40 38 -40 58 0 112 -174 59 -191 -58 -19 -10 -89 61
-89 32 0 68 -13 82 -30 13 -16 34 -24 45 -17 14 9 17 -8 9 -50 -11 -55 -7 -64
36 -75 46 -11 47 -15 20 -55 -38 -54 -38 -93 0 -93 17 0 30 13 30 28 0 23 40
52 72 52 4 0 8 -22 8 -49 0 -27 9 -54 20 -61 26 -16 3 149 -25 185 -13 17 -13
25 1 25 48 0 84 -27 84 -62 0 -31 15 -38 80 -38 65 0 80 7 80 38 0 22 19 42
45 49 66 18 99 16 86 -6 -21 -33 18 -38 84 -10 66 28 82 56 44 80 -32 20 76
109 133 109 58 0 89 58 46 86 -44 27 -3 194 47 194 22 0 35 15 35 40 0 26 -13
40 -38 40 -51 0 -96 161 -51 186 48 26 -1 94 -68 94 -73 0 -154 81 -118 117
20 20 19 29 -5 44 -41 25 -135 24 -144 -3 -12 -37 -116 2 -116 44 0 31 -15 38
-80 38 -67 0 -80 -7 -80 -41z m220 -264 c219 -149 205 -433 -26 -552 l-93 -48
-95 48 c-126 62 -186 153 -186 283 0 236 226 388 400 269z"/>
<path d="M5048 2858 c6 -35 12 -71 12 -80 0 -10 9 -18 20 -18 22 0 27 79 8
128 -22 58 -53 34 -40 -30z"/>
<path d="M75 2775 c-6 -36 -5 -73 1 -84 14 -23 41 43 43 104 2 69 -33 53 -44
-20z"/>
<path d="M5080 2562 c0 -44 9 -85 20 -92 12 -7 20 19 20 68 0 44 -9 85 -20 92
-12 7 -20 -19 -20 -68z"/>
<path d="M60 2470 c0 -38 9 -70 20 -70 11 0 20 32 20 70 0 39 -9 70 -20 70
-11 0 -20 -31 -20 -70z"/>
<path d="M5100 2260 c0 -44 9 -80 20 -80 11 0 20 36 20 80 0 44 -9 80 -20 80
-11 0 -20 -36 -20 -80z"/>
<path d="M60 2181 c0 -44 9 -81 20 -81 11 0 20 31 20 69 0 38 -9 74 -20 81
-12 7 -20 -20 -20 -69z"/>
<path d="M5118 2034 c-8 -67 -2 -134 13 -135 28 -1 36 102 11 127 -12 12 -23
16 -24 8z"/>
<path d="M61 1915 c2 -61 29 -127 43 -104 16 27 -5 149 -26 149 -10 0 -17 -20
-17 -45z"/>
<path d="M409 1890 c-59 -142 -11 -410 73 -410 17 0 19 -40 10 -138 -17 -167
-15 -168 182 -170 125 -1 143 -5 113 -27 -19 -14 -64 -25 -101 -25 -39 0 -66
-10 -66 -25 -1 -19 -5 -19 -17 1 -19 30 -125 89 -137 76 -5 -4 -16 -62 -25
-127 -28 -193 -93 -282 -232 -317 -30 -7 -59 -30 -64 -51 -5 -20 -27 -37 -47
-37 -47 0 -47 -19 -4 -109 41 -87 66 -91 66 -11 0 52 7 60 56 60 146 0 333
146 411 320 l40 90 37 -80 c33 -69 36 -111 27 -305 -7 -147 -4 -225 9 -225 12
0 15 -22 7 -53 -12 -51 -10 -53 53 -40 36 7 84 13 106 13 56 0 16 41 -43 45
-24 2 -43 5 -43 7 0 2 13 28 29 59 75 146 88 494 24 689 -16 50 -34 153 -40
231 l-10 140 73 40 c48 25 93 74 128 139 99 180 59 227 -74 90 -46 -47 -111
-90 -154 -101 -42 -11 -76 -29 -76 -40 0 -43 -75 -13 -149 62 -73 72 -79 87
-75 177 5 127 -44 157 -87 52z"/>
<path d="M4659 1925 c-16 -222 2 -267 94 -234 85 30 113 152 47 209 -45 39
-139 56 -141 25z m111 -107 c16 -49 3 -67 -38 -52 -18 7 -25 27 -18 53 14 53
40 53 56 -1z"/>
<path d="M4333 1830 c42 -127 56 -141 41 -41 -7 43 -27 92 -44 109 -27 27 -27
19 3 -68z"/>
<path d="M5116 1735 c-5 -14 -2 -52 5 -85 8 -33 16 -46 18 -30 2 17 8 50 12
74 9 47 -21 82 -35 41z"/>
<path d="M4555 1693 c-140 -130 -161 -353 -33 -353 31 0 38 -15 38 -80 l0 -80
87 0 c58 0 105 14 140 41 60 48 70 25 18 -40 -38 -46 -145 -62 -213 -32 -36
17 -37 5 -28 -377 l10 -395 -47 -18 c-81 -31 -54 -62 48 -55 84 5 96 12 102
56 7 56 38 514 41 616 3 113 42 49 42 -70 0 -153 59 -513 87 -531 17 -10 16
-14 -2 -15 -14 0 -25 -13 -25 -30 0 -18 19 -30 49 -30 53 0 84 30 52 50 -13 8
-13 24 1 46 14 23 16 156 5 422 -14 311 -12 395 10 425 85 123 64 284 -49 370
-53 40 -75 48 -93 30 -28 -28 -115 -31 -115 -4 0 34 -50 2 -85 -54 l-33 -55 4
70 c2 39 17 81 34 93 16 13 25 29 18 36 -6 6 -35 -10 -63 -36z"/>
<path d="M100 1605 c0 -47 9 -85 20 -85 26 0 26 101 0 140 -14 22 -19 7 -20
-55z"/>
<path d="M140 1311 c0 -38 9 -74 20 -81 12 -7 20 20 20 69 0 44 -9 81 -20 81
-11 0 -20 -31 -20 -69z"/>
<path d="M376 417 c-5 -13 -26 -26 -47 -30 -165 -25 -219 -25 -260 2 -49 32
-69 23 -69 -32 0 -44 18 -48 350 -79 336 -30 363 -25 252 48 -55 36 -81 67
-74 85 8 22 -8 29 -67 29 -43 0 -81 -10 -85 -23z"/>
<path d="M5090 420 c7 -11 -12 -42 -42 -70 l-54 -50 103 0 103 0 0 70 c0 65
-5 70 -61 70 -36 0 -56 -8 -49 -20z"/>
<path d="M3785 346 c-82 -16 -54 -65 30 -52 88 14 93 17 76 45 -14 21 -26 22
-106 7z"/>
<path d="M4149 319 c-7 -12 -36 -30 -64 -41 -74 -28 -57 -30 165 -18 l200 10
-77 35 c-87 39 -204 46 -224 14z"/>
<path d="M4000 197 c0 -41 -124 -66 -340 -68 -126 -1 -275 -12 -330 -26 -55
-13 -192 -26 -305 -28 -113 -2 -205 -12 -205 -23 0 -27 998 2 1206 36 241 38
253 54 77 99 -57 15 -103 19 -103 10z"/>
<path d="M1230 160 c7 -12 -15 -26 -50 -33 -194 -39 182 -87 678 -87 409 0
464 10 138 26 -117 5 -222 15 -232 22 -11 6 -99 13 -197 14 -127 2 -199 14
-256 41 -91 43 -98 44 -81 17z"/>
</g>
</svg>
