<?xml version="1.0" standalone="no"?>
<!DOCTYPE svg PUBLIC "-//W3C//DTD SVG 20010904//EN"
 "http://www.w3.org/TR/2001/REC-SVG-20010904/DTD/svg10.dtd">
<svg version="1.0" xmlns="http://www.w3.org/2000/svg"
 width="300.000000pt" height="238.000000pt" viewBox="0 0 248.000000 249.000000"
 preserveAspectRatio="xMidYMid meet">
<metadata>
Created by potrace 1.10, written by Peter Selinger 2001-2011
</metadata>
<g transform="translate(0.000000,249.000000) scale(0.050000,-0.050000)"
fill="#000000" stroke="none">
<path d="M3700 4821 c-106 -32 -220 -104 -274 -171 -40 -49 -86 -79 -157 -99
-272 -80 -410 -306 -319 -524 17 -40 30 -112 30 -161 0 -159 90 -259 123 -136
21 79 47 89 144 55 224 -78 574 12 684 177 21 32 49 58 61 58 80 0 316 151
370 236 202 319 -238 695 -662 565z m337 -141 c29 0 51 -15 57 -39 5 -21 20
-34 33 -30 13 5 48 -12 78 -38 56 -48 76 -89 30 -60 -14 9 -41 13 -60 10 -19
-3 -35 5 -35 18 0 17 -10 16 -34 -4 -28 -22 -31 -22 -17 0 13 22 8 23 -25 5
-54 -29 -64 -28 -64 7 0 31 -76 25 -142 -10 -20 -11 -68 -16 -106 -11 -81 10
-133 -48 -139 -153 -2 -43 -14 -63 -40 -67 -20 -3 -42 -11 -49 -17 -7 -7 -23
21 -36 63 l-24 76 -2 -71 c-3 -114 230 -290 331 -250 14 5 32 0 39 -12 13 -21
149 -14 238 12 22 6 13 -2 -20 -18 -202 -99 -556 22 -642 218 -14 33 -27 49
-27 35 -1 -15 9 -45 21 -67 12 -22 17 -45 11 -51 -18 -18 -73 110 -73 171 0
64 91 110 121 61 9 -14 20 -1 28 36 10 45 35 71 102 104 49 25 84 54 78 64 -8
12 8 15 37 7 29 -7 56 -3 64 11 10 16 49 20 117 12 57 -6 124 -11 150 -12z
m-257 -230 c33 -40 11 -90 -40 -90 -45 0 -71 43 -53 90 15 38 61 39 93 0z
m178 3 c30 -37 7 -93 -39 -93 -47 0 -65 30 -49 80 15 46 55 52 88 13z m192
-33 c0 -36 -12 -52 -42 -56 -51 -7 -79 48 -45 89 36 44 87 24 87 -33z m-884
-36 c15 42 59 -12 59 -72 0 -28 8 -46 18 -40 9 5 17 -8 17 -31 0 -30 -13 -41
-48 -41 -68 0 -112 -20 -112 -50 0 -24 -39 -49 -93 -61 -33 -7 -51 78 -29 135
30 81 127 177 154 154 17 -13 27 -12 34 6z m389 -100 c-43 -8 -47 -44 -5 -44
47 0 60 8 55 32 -7 29 118 55 134 29 7 -10 24 -12 38 -3 32 20 183 9 246 -18
41 -17 42 -19 7 -18 -82 5 -112 -2 -99 -23 14 -24 -51 -81 -75 -66 -9 5 -33
-1 -56 -13 -29 -15 -40 -15 -40 1 0 12 -16 16 -38 10 -21 -7 -45 -3 -52 9 -7
12 -31 16 -51 10 -36 -12 -159 44 -159 71 0 21 89 55 110 42 11 -7 4 -15 -15
-19z m-315 -212 c0 -40 -50 -74 -87 -60 -38 14 -43 70 -10 103 28 28 97 -3 97
-43z m173 16 c21 -54 -46 -104 -86 -64 -41 41 -22 96 33 96 23 0 47 -14 53
-32z m149 -28 c10 0 18 -13 18 -30 0 -36 -43 -39 -76 -6 -34 34 -30 62 8 48
17 -7 40 -12 50 -12z"/>
<path d="M2500 4700 c-63 -13 -58 -15 43 -17 61 -2 142 -16 180 -31 78 -33
313 -54 328 -30 12 20 -109 54 -243 69 -197 22 -239 23 -308 9z"/>
<path d="M1990 4651 c-407 -106 -716 -268 -1038 -543 -87 -75 -87 -78 5 -46
35 12 58 30 52 40 -6 10 3 12 20 6 17 -7 31 -4 31 6 0 22 111 89 124 75 6 -5
23 5 38 24 18 22 19 29 3 20 -17 -10 -21 -5 -13 16 7 17 20 26 30 20 10 -6 18
-2 18 10 0 11 7 20 15 19 48 -8 88 7 129 47 70 68 153 117 213 124 29 4 51 17
48 30 -4 13 2 19 12 13 19 -12 168 32 271 78 32 14 71 22 85 16 15 -6 27 0 27
13 0 13 7 19 15 14 9 -5 52 7 95 28 110 52 42 48 -180 -10z"/>
<path d="M2277 4486 c-118 -18 -209 -283 -125 -366 28 -27 219 46 307 117 96
77 88 78 139 -8 51 -86 52 -131 9 -260 -41 -126 -58 -143 -86 -91 -32 60 -145
58 -189 -3 -37 -51 -22 -63 -139 118 -32 49 -62 85 -67 80 -5 -5 4 -31 20 -56
16 -26 36 -83 43 -126 8 -44 32 -113 53 -155 l39 -76 134 0 c185 1 225 43 225
242 0 40 14 108 32 150 21 49 25 79 11 84 -13 4 -16 44 -9 104 19 161 -46 265
-142 228 -15 -6 -34 -1 -41 11 -13 20 -106 24 -214 7z"/>
<path d="M4178 3930 c-11 -40 -6 -65 16 -102 14 -22 19 -49 11 -58 -8 -9 -4
-10 10 -2 15 9 30 2 37 -17 7 -17 22 -25 33 -18 12 7 15 4 8 -8 -19 -31 7 -87
34 -72 13 8 17 7 9 -2 -7 -8 17 -73 55 -145 38 -71 69 -151 69 -178 0 -26 9
-48 19 -48 37 0 99 -258 112 -471 10 -164 7 -210 -11 -199 -18 11 -19 5 -2
-26 27 -50 29 -264 3 -264 -10 0 -18 -94 -18 -215 0 -148 -10 -243 -32 -303
-17 -49 -28 -92 -24 -96 4 -4 21 32 38 79 205 561 176 1204 -79 1734 -101 211
-276 460 -288 411z"/>
<path d="M720 3898 c-257 -102 -311 -448 -128 -814 l98 -194 -5 -291 -5 -291
91 -24 c116 -31 248 -153 319 -293 70 -137 148 -231 233 -279 59 -34 55 -27
-35 63 -56 55 -115 131 -133 168 -17 37 -55 119 -84 182 -29 62 -78 132 -107
155 -148 111 -139 89 -147 382 -7 245 -12 278 -65 388 -134 281 -148 335 -127
459 62 362 412 316 541 -71 77 -228 199 -378 283 -346 36 14 40 40 11 58 -33
20 -132 229 -167 351 -83 289 -360 481 -573 397z"/>
<path d="M3655 3660 c-148 -45 -339 -237 -292 -294 16 -18 30 -20 47 -6 14 11
42 15 62 7 21 -7 32 -6 24 3 -19 20 143 150 188 150 18 0 39 9 46 20 7 11 21
20 32 20 11 0 15 -9 8 -20 -7 -11 8 -20 32 -20 181 0 242 -363 114 -674 -62
-151 -65 -166 -65 -446 -1 -228 -8 -303 -33 -350 -18 -33 -47 -87 -65 -120
-17 -33 -84 -112 -147 -175 -69 -69 -102 -115 -83 -115 52 0 209 153 274 268
33 59 91 133 129 165 l68 57 -26 120 c-48 227 -28 363 92 615 204 430 -38 905
-405 795z"/>
<path d="M1960 3549 c-324 -106 -320 -102 -385 -371 -93 -383 -145 -858 -95
-858 11 0 20 10 20 21 0 12 16 20 35 18 74 -8 85 2 85 71 0 39 9 70 20 70 11
0 20 44 20 98 0 76 11 113 50 158 28 33 50 74 50 90 0 70 244 257 320 246 49
-8 61 -5 40 8 -26 17 -25 19 5 20 26 0 35 -16 35 -59 0 -43 33 -98 120 -203
66 -78 120 -153 119 -165 0 -13 -18 -1 -40 25 -22 26 -45 43 -51 37 -15 -16
74 -95 107 -95 17 0 24 14 17 35 -5 19 -29 107 -52 195 -24 88 -65 241 -92
340 -27 99 -58 223 -70 275 -28 124 -17 122 -258 44z m104 -294 c4 -74 -1
-135 -9 -135 -8 0 -14 88 -12 195 3 201 12 177 21 -60z m-117 56 c61 5 74 0
65 -24 -7 -17 -12 -43 -12 -59 0 -15 -10 -28 -21 -28 -13 0 -16 19 -9 45 10
35 8 38 -8 15 -12 -16 -22 -45 -22 -64 0 -20 -28 -43 -68 -58 -43 -16 -64 -35
-58 -51 7 -18 -6 -27 -37 -27 -35 -1 -40 -5 -19 -18 25 -16 25 -22 0 -47 -29
-29 -78 -25 -78 6 0 10 14 13 30 6 35 -13 35 -15 11 69 -15 52 -13 68 10 77
16 6 29 27 29 47 0 19 14 46 30 60 17 14 30 38 30 55 0 21 7 24 25 10 14 -12
59 -18 102 -14z"/>
<path d="M2600 3573 c0 -26 -27 -200 -60 -385 -33 -186 -65 -369 -71 -408
l-10 -70 110 120 c60 66 110 132 110 146 1 15 9 21 20 15 11 -7 14 16 8 56
-10 60 -5 69 38 80 48 12 50 20 53 177 4 236 42 252 42 18 l0 -185 -60 -23
c-33 -13 -60 -36 -60 -51 0 -24 7 -23 37 4 57 52 113 39 217 -49 126 -107 170
-159 158 -190 -5 -14 12 -39 39 -57 43 -28 49 -47 49 -151 0 -93 7 -120 30
-120 22 0 30 -23 32 -85 0 -47 5 -75 10 -63 11 26 112 11 132 -19 25 -39 56
86 56 223 -1 212 -100 591 -209 803 -76 146 -671 336 -671 214z m318 -249 c88
54 282 -87 282 -207 0 -40 8 -55 23 -45 16 10 20 3 10 -20 -7 -20 -13 -48 -13
-63 0 -23 -10 -24 -50 -5 -27 12 -50 31 -50 42 0 10 14 8 30 -6 21 -17 30 -18
30 -2 0 12 -10 22 -21 22 -12 0 -16 8 -10 18 6 9 -1 16 -15 15 -33 -4 -216
147 -204 168 6 8 -5 20 -23 27 -24 10 -29 3 -21 -28 6 -22 2 -40 -8 -40 -10 0
-17 47 -15 105 2 58 7 81 11 51 7 -47 14 -52 44 -32z"/>
<path d="M2369 3525 c-24 -17 -9 -432 16 -457 8 -8 15 -4 15 10 0 16 15 20 40
12 38 -12 40 -6 30 69 -5 44 -15 117 -20 162 -6 44 0 100 12 123 31 58 -39
119 -93 81z"/>
<path d="M293 3235 c-59 -126 -146 -371 -176 -495 -42 -176 -69 -360 -53 -360
9 0 16 16 16 36 0 19 14 89 32 155 18 65 36 146 40 179 5 33 17 63 27 66 10 4
13 21 6 39 -8 23 -4 27 15 15 17 -11 21 -8 12 7 -8 12 0 52 17 89 18 36 36 87
41 112 5 26 21 66 37 90 29 45 63 172 46 172 -6 0 -32 -47 -60 -105z"/>
<path d="M1120 3038 c0 -6 17 -46 38 -89 21 -43 36 -83 32 -89 -3 -5 7 -22 22
-36 35 -32 35 -20 -1 67 -28 68 -91 169 -91 147z"/>
<path d="M2700 2945 c0 -8 -41 -60 -90 -114 -96 -106 -103 -121 -68 -142 26
-16 61 30 44 58 -7 11 -2 13 11 5 13 -8 30 1 38 22 17 41 105 53 105 14 0 -14
10 -32 23 -40 15 -9 18 -5 7 12 -11 17 -8 21 7 12 13 -8 20 -21 14 -30 -5 -8
9 -41 30 -73 21 -33 39 -86 39 -120 0 -76 38 -158 86 -188 49 -31 47 -39 61
170 l12 181 -55 33 c-29 19 -97 74 -150 124 -96 92 -114 104 -114 76z"/>
<path d="M2035 2834 l-115 -105 1 -209 1 -210 59 69 c42 50 59 90 59 144 0 41
9 80 21 87 11 7 19 24 17 37 -7 59 4 93 32 93 17 0 30 8 30 17 0 29 80 15 100
-17 17 -26 19 -25 20 5 0 19 9 35 21 35 11 0 -8 36 -43 80 -79 98 -64 100
-203 -26z"/>
<path d="M1752 2729 c-35 -35 -38 -81 -19 -266 19 -181 55 -158 95 59 19 101
31 184 28 186 -3 2 -21 15 -39 28 -27 21 -39 19 -65 -7z"/>
<path d="M3095 2748 c-6 -6 1 -42 17 -79 15 -37 28 -91 28 -118 0 -28 9 -51
20 -51 37 0 23 191 -17 227 -20 18 -41 28 -48 21z"/>
<path d="M30 2150 c-8 -116 -11 -216 -5 -221 5 -6 16 85 24 202 8 117 10 217
4 222 -5 5 -15 -86 -23 -203z"/>
<path d="M553 2258 c-210 -111 -203 -395 17 -708 104 -147 124 -211 136 -435
19 -341 202 -610 522 -765 100 -49 209 -107 242 -129 111 -75 122 -42 20 57
-55 53 -159 124 -230 158 -151 71 -312 208 -289 245 9 16 7 20 -7 12 -47 -30
-172 284 -169 423 2 76 -12 175 -35 249 -21 67 -33 132 -26 144 7 11 5 14 -4
6 -15 -13 -79 70 -86 111 -1 8 -16 29 -33 46 -17 17 -25 41 -18 53 7 12 4 16
-7 9 -26 -17 -64 69 -79 177 -13 93 42 248 87 248 28 1 66 64 66 110 0 40 -13
38 -107 -11z"/>
<path d="M1220 2271 c0 -40 68 -286 94 -341 30 -63 41 -70 116 -70 l82 0 54
-555 c30 -305 64 -672 76 -815 11 -143 25 -280 30 -305 l9 -45 764 5 765 5 13
160 c7 88 27 309 46 490 18 182 49 492 67 690 l35 360 74 6 c48 4 82 20 95 44
11 20 33 51 50 67 17 17 40 79 51 137 11 58 25 122 31 141 10 33 -57 35 -1221
35 -677 0 -1231 -4 -1231 -9z m490 -153 c-34 -16 -33 -17 10 -7 75 18 991 18
1297 1 212 -12 264 -10 252 9 -11 19 -3 22 33 12 26 -7 65 -13 86 -13 21 0 33
-6 26 -13 -8 -7 -3 -26 9 -41 59 -71 1 -76 -959 -82 -771 -4 -941 0 -973 23
-82 60 10 131 169 130 72 0 82 -4 50 -19z m1544 -196 c32 -9 40 -20 27 -40
-24 -38 -1605 -46 -1644 -7 -13 13 -17 31 -9 40 34 34 1500 40 1626 7z m-694
-145 c303 -12 561 -31 575 -42 28 -22 15 -280 -26 -515 -4 -27 -13 -117 -19
-200 -5 -82 -14 -177 -19 -210 -6 -33 -14 -129 -19 -214 -13 -236 31 -217
-544 -227 -274 -5 -532 -14 -573 -19 -41 -6 -76 -4 -78 5 -1 8 -6 38 -11 65
-15 88 -24 167 -35 310 -6 77 -16 190 -22 250 -6 61 -12 148 -15 195 -2 47
-13 85 -23 85 -10 0 -9 10 4 23 16 16 17 35 4 59 -17 32 -29 261 -22 392 5 71
72 75 823 43z"/>
<path d="M4100 2176 c-48 -16 -59 -25 -35 -31 19 -4 35 -16 35 -26 0 -11 14
-19 30 -19 17 0 30 -11 30 -25 1 -20 4 -20 17 0 25 40 139 -9 170 -72 32 -65
43 -216 18 -249 -9 -13 -17 -37 -16 -54 1 -16 -2 -34 -8 -40 -138 -129 -243
-332 -310 -598 -54 -211 -88 -302 -112 -302 -8 0 -20 -21 -26 -47 -14 -56
-179 -213 -223 -213 -16 0 -30 -12 -30 -26 0 -14 -18 -27 -41 -29 -60 -4 -173
-80 -229 -154 -69 -90 -63 -96 35 -40 47 27 99 49 117 49 254 2 572 408 618
789 23 190 57 267 170 391 306 336 162 813 -210 696z"/>
<path d="M50 1730 c61 -679 444 -1216 1018 -1428 152 -56 166 -43 17 17 -63
26 -146 70 -185 99 -38 28 -74 52 -80 52 -43 1 -440 437 -487 535 -19 42 -44
71 -54 64 -11 -6 -20 -2 -21 10 -5 39 -9 51 -21 71 -6 11 -28 70 -47 130 -19
61 -44 121 -55 135 -12 14 -15 31 -9 38 6 6 2 35 -9 64 -11 29 -33 112 -48
183 -26 121 -27 123 -19 30z"/>
<path d="M4441 1578 c-11 -27 -51 -97 -89 -158 -38 -60 -93 -150 -121 -200
l-51 -90 59 70 c72 86 249 399 233 414 -6 7 -20 -10 -31 -36z"/>
</g>
</svg>
