<?xml version="1.0" standalone="no"?>
<!DOCTYPE svg PUBLIC "-//W3C//DTD SVG 20010904//EN"
 "http://www.w3.org/TR/2001/REC-SVG-20010904/DTD/svg10.dtd">
<svg version="1.0" xmlns="http://www.w3.org/2000/svg"
 width="300.000000pt" height="191.000000pt" viewBox="0 0 300.000000 191.000000"
 preserveAspectRatio="xMidYMid meet">
<metadata>
Created by potrace 1.10, written by Peter Selinger 2001-2011
</metadata>
<g transform="translate(0.000000,191.000000) scale(0.100000,-0.100000)"
fill="#000000" stroke="none">
<path d="M1948 1856 c-159 -47 -276 -149 -352 -309 -42 -87 -77 -199 -76 -243
1 -10 12 23 25 74 26 102 76 214 126 280 35 47 54 51 20 4 -57 -80 -119 -265
-109 -324 4 -22 5 -22 16 6 7 15 13 40 13 55 2 48 11 81 20 75 5 -3 9 11 9 30
0 34 2 36 33 37 22 1 25 3 10 6 l-22 4 20 45 c10 25 26 52 34 60 8 9 15 19 15
22 0 4 20 28 45 54 61 64 127 101 180 102 24 1 41 5 38 9 -3 5 4 4 16 -2 12
-7 25 -10 29 -7 4 3 14 0 22 -6 13 -8 13 -9 0 -5 -9 3 10 -22 41 -54 31 -32
73 -90 93 -128 42 -80 46 -74 -74 -87 l-65 -6 -13 35 c-16 45 -70 93 -120 108
-58 17 -121 -14 -162 -77 -16 -26 -30 -54 -30 -61 0 -7 -6 -13 -12 -13 -9 0
-9 -3 -3 -8 6 -4 9 -30 7 -59 -3 -44 -7 -52 -25 -55 -28 -4 -35 -43 -13 -67
15 -16 37 -18 205 -17 104 1 192 4 195 7 14 14 15 54 2 68 -7 9 -16 41 -19 72
l-5 57 61 7 c34 3 74 9 89 12 25 5 27 2 49 -66 13 -39 25 -69 27 -66 2 2 -6
34 -18 70 -19 58 -21 90 -5 73 8 -8 41 -105 64 -187 19 -67 19 -72 3 -66 -90
37 -182 40 -238 6 -23 -14 -39 -16 -84 -9 -30 4 -115 2 -190 -4 -149 -12 -161
-12 -208 -2 -23 4 -40 1 -60 -12 -15 -10 -30 -17 -34 -16 -5 1 -8 -4 -8 -11 0
-7 -8 -31 -18 -51 l-19 -38 -22 35 c-23 37 -93 77 -136 77 -15 0 -42 -15 -65
-37 l-41 -36 -29 35 c-35 43 -105 67 -140 48 -12 -6 -28 -9 -36 -6 -16 6 -44
-3 -44 -14 0 -5 9 -6 21 -3 19 5 19 4 -5 -32 -14 -21 -26 -44 -26 -51 0 -9
-12 -14 -36 -14 -19 0 -33 4 -30 9 6 10 -16 21 -41 21 -13 0 -13 -3 -2 -17 11
-15 11 -16 -1 -5 -8 6 -21 12 -29 12 -10 0 -8 -7 9 -25 21 -22 25 -23 39 -11
11 10 21 12 34 5 9 -6 22 -7 27 -4 11 7 5 -100 -11 -194 -21 -125 -85 -191
-185 -191 -90 1 -185 95 -199 200 -7 53 2 180 16 217 8 21 9 21 59 5 47 -15
51 -18 45 -42 -3 -14 -8 -63 -11 -110 -5 -74 -2 -89 15 -117 12 -19 29 -33 40
-33 11 0 23 -4 26 -10 11 -18 34 -10 49 18 37 66 40 80 39 172 -1 120 -3 140
-14 140 -5 0 -8 -6 -6 -12 1 -7 -4 -12 -12 -10 -10 2 -11 -3 -5 -20 14 -38 10
-200 -5 -235 -15 -36 -54 -46 -65 -17 -19 48 8 209 37 225 9 6 17 20 17 32 0
18 -2 19 -10 7 -7 -11 -10 -11 -10 -2 0 7 -5 10 -10 7 -6 -4 -8 -10 -5 -15 3
-4 -1 -10 -9 -13 -8 -3 -17 0 -20 8 -6 15 50 46 71 38 7 -3 13 0 13 6 0 16
-31 14 -75 -5 -33 -14 -41 -14 -85 1 -51 17 -60 28 -60 78 0 21 -7 36 -20 45
-11 7 -20 23 -20 37 0 13 -11 36 -24 51 -23 27 -25 28 -66 15 -23 -7 -48 -15
-54 -17 -12 -5 -41 44 -33 53 12 12 159 -6 151 -18 -3 -5 2 -9 10 -9 8 0 18 5
21 10 8 14 105 13 105 -1 0 -6 10 -9 23 -7 30 4 38 48 8 48 -11 0 -23 -5 -26
-10 -11 -18 -229 -6 -259 13 -14 10 -32 17 -41 17 -8 0 -15 5 -15 10 0 6 7 10
15 10 18 0 45 51 44 82 -1 16 -4 11 -11 -15 -6 -23 -21 -45 -37 -55 -14 -9
-29 -21 -32 -26 -10 -13 -70 2 -96 23 -26 22 -30 33 -8 25 9 -4 15 -1 15 7 0
17 110 71 110 55 0 -6 6 -4 13 4 7 9 20 14 31 12 10 -2 16 0 12 6 -3 6 -1 12
5 14 20 7 -7 44 -45 62 -30 14 -43 15 -83 5 -65 -16 -101 -51 -109 -106 -5
-38 -3 -48 17 -70 13 -14 35 -29 48 -34 23 -9 23 -10 6 -29 -11 -12 -18 -41
-21 -82 -3 -35 -8 -64 -12 -66 -4 -1 -23 -10 -42 -20 -37 -18 -48 -49 -36 -98
11 -41 27 -27 21 19 -4 39 -3 41 10 23 8 -11 12 -29 9 -39 -3 -11 -7 -26 -8
-33 -1 -7 -11 -24 -23 -36 -38 -42 -53 -85 -53 -150 1 -124 57 -189 220 -257
54 -23 104 -41 110 -41 7 0 10 -6 8 -12 -9 -25 -129 -57 -215 -58 -108 0 -111
-5 -76 -131 14 -52 30 -99 35 -106 5 -7 28 -16 51 -20 40 -8 42 -7 57 21 25
49 64 71 123 70 45 -1 47 -1 19 6 -18 4 -36 11 -40 15 -10 10 59 -5 79 -18 13
-8 21 -6 34 6 33 34 81 13 101 -44 l11 -34 0 40 c0 70 72 175 118 175 12 0 43
6 68 14 l47 14 8 -31 8 -32 7 33 c4 20 12 32 22 32 11 0 15 -6 12 -17 -3 -10
-8 -30 -11 -44 -5 -22 -13 -27 -47 -32 -72 -10 -129 -87 -129 -175 0 -49 31
-109 50 -97 5 3 20 0 34 -6 30 -14 109 3 135 28 15 16 16 15 19 -8 6 -37 22
-48 22 -13 0 36 60 269 91 349 12 33 35 72 50 87 27 28 72 37 84 18 3 -5 15
-10 26 -10 11 0 18 -4 15 -9 -3 -5 2 -8 11 -7 21 1 56 -50 82 -119 20 -53 64
-252 74 -336 6 -45 6 -45 -36 -66 l-43 -21 -17 21 c-9 12 -17 33 -17 47 0 40
-10 45 -85 45 -38 0 -84 4 -101 8 -32 8 -32 8 -45 -41 l-12 -50 -44 19 c-35
15 -43 16 -43 4 0 -24 -103 -48 -180 -43 -37 3 -72 8 -79 12 -6 4 -11 29 -11
56 0 42 -4 52 -25 66 -20 13 -22 19 -13 34 16 25 -5 50 -42 50 -16 0 -31 6
-33 13 -4 7 -6 6 -6 -4 -1 -9 -8 -20 -17 -23 -10 -4 -14 -14 -11 -26 3 -14 -3
-27 -21 -41 -20 -16 -28 -33 -33 -72 -6 -46 -6 -43 -8 32 -1 109 19 180 52
181 4 0 7 -11 7 -24 0 -14 5 -28 11 -32 9 -5 10 1 5 20 -4 17 -2 26 5 26 8 0
8 4 -1 15 -17 21 -34 19 -67 -9 l-29 -25 3 -165 c2 -105 0 -166 -7 -166 -11 0
-19 29 -22 89 -2 25 -9 46 -16 49 -7 2 -12 0 -11 -5 7 -40 1 -44 -73 -41 -65
3 -73 5 -73 23 0 18 9 21 70 26 l70 5 -65 3 c-36 2 -57 5 -48 8 10 3 18 16 20
36 3 29 7 33 43 38 l40 6 -43 2 c-24 0 -52 6 -64 12 -11 6 -23 7 -26 3 -4 -4
-1 -9 6 -11 16 -6 7 -64 -16 -112 -12 -24 -14 -35 -6 -38 8 -2 10 -18 7 -42
-3 -23 -1 -41 6 -45 6 -4 59 -9 118 -11 130 -4 147 -9 139 -41 -7 -28 16 -37
85 -32 39 3 44 6 41 25 -2 16 3 22 20 25 16 2 24 11 26 29 3 26 4 26 40 13 56
-20 154 -17 223 6 52 18 66 19 94 9 42 -16 60 -3 69 46 l7 35 62 -6 c84 -8 85
-8 89 -45 2 -25 11 -37 37 -52 33 -17 37 -18 68 -3 l33 16 0 -29 c0 -30 21
-54 58 -66 29 -9 149 31 161 54 6 10 6 33 1 57 -14 62 -33 215 -27 220 3 3 19
-2 36 -10 44 -23 85 -20 120 10 35 29 37 24 16 -57 -9 -33 -13 -65 -9 -71 8
-13 147 -78 168 -78 10 0 17 -13 21 -38 10 -57 11 -59 50 -78 37 -17 37 -17
101 14 36 18 67 39 70 46 3 8 -6 48 -20 90 -14 41 -26 76 -26 79 0 2 15 4 34
5 43 2 133 42 169 76 15 14 36 44 46 66 18 40 18 40 29 16 8 -17 22 -27 47
-32 32 -6 34 -8 18 -20 -17 -12 -17 -13 5 -14 22 0 22 -1 22 -156 0 -101 3
-153 10 -149 6 4 10 67 10 156 0 126 2 149 15 149 8 0 15 5 15 10 0 6 6 10 13
10 6 0 23 9 37 20 14 11 33 20 42 20 24 0 19 -81 -7 -110 -15 -17 -17 -25 -8
-39 9 -14 8 -30 -3 -67 -8 -27 -13 -65 -12 -84 2 -27 0 -34 -12 -31 -33 8 -45
5 -45 -9 0 -10 12 -16 38 -18 l37 -3 0 64 c0 35 5 79 11 96 10 28 15 32 35 27
17 -5 26 -2 31 10 6 16 7 15 19 -1 7 -9 17 -14 22 -11 5 3 15 -15 21 -41 7
-25 19 -59 27 -75 15 -30 12 -33 -30 -28 -11 1 -17 -3 -14 -12 5 -16 57 -23
70 -10 6 6 2 24 -11 50 -30 58 -43 122 -26 128 7 3 11 14 8 25 -3 10 -9 16
-14 13 -5 -3 -9 -1 -9 5 0 5 4 11 9 13 5 2 4 14 -2 28 -5 14 -9 36 -8 50 1 23
1 24 -10 6 -9 -14 -9 -24 0 -37 27 -44 4 -51 -59 -18 -22 12 -40 26 -40 32 0
7 4 7 12 -1 21 -21 27 -13 12 16 -7 15 -14 32 -14 39 0 15 -43 3 -90 -26 -41
-25 -50 -26 -50 -7 0 7 27 25 60 40 33 15 58 32 55 37 -4 5 5 9 19 9 32 0 34
-5 38 -72 2 -31 6 -54 10 -52 3 2 9 -2 12 -8 4 -7 4 -2 1 12 -3 14 -8 45 -12
70 -3 25 -13 50 -22 57 -14 10 -13 12 8 8 33 -6 36 -10 40 -49 0 -8 9 -16 18
-18 11 -2 20 -19 27 -53 10 -47 13 -50 44 -53 22 -2 34 2 38 13 7 18 -32 143
-52 166 -22 25 -6 28 36 8 21 -10 45 -17 52 -14 8 3 33 37 56 75 35 56 41 73
33 89 -13 23 -70 69 -127 101 l-41 24 57 55 c72 71 96 133 87 227 -12 124 -72
211 -170 249 -29 11 -47 24 -47 34 0 24 -91 172 -151 246 -80 99 -189 184
-296 231 -30 14 -61 23 -67 21 -6 -2 7 -9 29 -16 153 -49 332 -217 439 -412
40 -74 38 -79 -30 -79 -20 0 -33 -4 -30 -9 3 -4 -6 -6 -19 -3 -31 5 -119 -23
-158 -50 -28 -20 -29 -20 -48 -1 -11 10 -30 59 -43 109 -14 49 -32 109 -42
133 -9 24 -13 46 -8 50 12 11 133 51 154 51 18 0 67 -66 120 -163 33 -58 32
-77 -2 -83 -75 -11 -153 -45 -168 -74 -9 -16 -1 -15 56 12 48 23 88 33 148 38
44 4 74 8 64 9 -10 0 -32 32 -57 84 -51 104 -127 204 -199 264 -72 58 -201
121 -281 136 -33 6 -61 15 -61 19 0 13 -30 8 -112 -16z m319 -92 c40 -19 93
-54 119 -78 l46 -44 -69 -22 c-37 -13 -73 -25 -79 -27 -7 -2 -26 20 -43 50
-40 71 -107 154 -134 168 -12 6 -1 -10 24 -37 45 -47 108 -139 122 -176 12
-33 -18 -19 -32 15 -21 48 -69 117 -114 165 -23 23 -35 42 -28 42 6 0 10 4 7
8 -8 13 100 -25 181 -64z m-1934 -67 c14 -15 21 -41 9 -33 -5 3 -21 -1 -36 -9
-14 -8 -24 -10 -21 -5 12 19 -7 10 -27 -12 -11 -13 -17 -17 -13 -10 3 6 1 12
-4 12 -6 0 -11 -5 -11 -11 0 -5 -4 -8 -8 -5 -5 3 -16 -4 -25 -15 -18 -21 -37
-25 -37 -8 0 5 -4 8 -9 5 -4 -3 -6 6 -3 19 5 30 46 72 75 78 47 9 99 6 110 -6z
m1623 -32 c11 -8 14 -15 7 -15 -25 0 -13 -19 15 -22 35 -4 71 -73 79 -151 6
-54 5 -55 -23 -60 -16 -4 -41 -4 -56 -2 -26 3 -28 1 -28 -36 l0 -39 -64 0
c-98 0 -126 8 -126 36 0 13 5 24 10 24 6 0 10 4 10 9 0 6 -9 9 -20 8 -10 -1
-19 -8 -18 -17 3 -43 -2 -51 -29 -48 -22 2 -28 8 -28 28 0 18 6 26 21 28 19 3
22 12 27 72 6 75 20 110 42 110 7 0 17 5 21 12 5 8 2 9 -9 5 -28 -11 -19 9 18
42 29 25 44 31 83 31 27 0 57 -7 68 -15z m-1646 -169 c0 -2 3 -11 6 -20 4 -10
-5 -20 -25 -31 -34 -17 -56 -12 -47 12 3 8 1 11 -4 8 -6 -3 -10 -2 -10 3 0 5
10 14 23 20 22 11 57 16 57 8z m-81 -102 c1 -14 -6 -24 -20 -27 -19 -5 -20 -3
-14 36 4 23 10 46 13 52 7 11 19 -27 21 -61z m82 14 c-28 -22 -51 -23 -51 -3
0 8 7 15 15 15 8 0 15 4 15 9 0 5 10 7 22 3 l21 -5 -22 -19z m123 11 c-4 -8 1
-9 17 -4 23 7 24 7 4 -8 -20 -16 -20 -16 1 -11 14 4 23 0 27 -10 4 -9 1 -16
-6 -16 -8 0 -6 -4 3 -10 12 -8 12 -10 1 -10 -11 0 -11 -3 -1 -15 6 -8 10 -22
8 -32 -3 -14 -8 -11 -21 14 -9 17 -25 38 -36 45 -28 20 -36 55 -14 61 10 3 19
5 21 6 2 0 0 -4 -4 -10z m-46 -17 c9 -7 8 -13 -8 -27 -16 -14 -23 -16 -32 -7
-18 18 -30 14 -23 -7 9 -28 -30 -38 -56 -15 -24 21 -24 34 -1 34 9 0 28 7 42
14 29 16 60 19 78 8z m1666 -24 c-4 -25 -3 -29 5 -18 5 8 13 11 18 7 13 -14
-20 -27 -69 -27 -39 0 -48 3 -48 18 0 28 13 40 50 45 19 2 38 5 42 5 4 1 5
-13 2 -30z m-1751 -68 c9 0 17 -7 17 -15 0 -18 -12 -19 -27 -4 -8 8 -17 8 -33
-1 -17 -9 -19 -14 -9 -26 9 -11 8 -14 -2 -15 -32 -2 -54 -9 -57 -18 -7 -21
-30 -10 -35 17 -3 15 -9 35 -12 44 -5 13 -2 17 17 16 40 -2 48 2 48 19 0 16
-1 16 -12 0 -9 -11 -18 -14 -28 -7 -14 9 -11 11 50 32 8 3 26 -5 41 -18 14
-13 33 -24 42 -24z m117 25 c0 -7 -9 -17 -21 -20 -11 -4 -18 -9 -16 -12 3 -2
18 2 34 10 28 15 29 14 55 -22 15 -21 30 -49 33 -64 6 -24 4 -27 -19 -27 -59
0 -160 -44 -208 -90 -27 -26 -48 -52 -48 -59 0 -29 59 -70 131 -92 191 -57
249 -110 249 -225 0 -118 -99 -218 -215 -217 -30 1 -56 -5 -66 -13 -9 -8 -44
-20 -77 -26 -89 -17 -104 -7 -125 80 -21 87 -21 85 5 71 51 -27 258 16 258 54
0 8 9 22 20 32 39 36 19 61 -80 98 -148 56 -211 97 -236 156 -25 59 -18 128
17 183 17 26 36 48 41 48 6 0 48 18 95 40 47 22 90 40 94 40 5 0 18 -18 29
-40 11 -22 24 -40 29 -40 13 0 51 50 51 66 0 8 -4 14 -10 14 -5 0 -10 -11 -10
-25 0 -14 -8 -29 -20 -35 -15 -8 -20 -8 -20 1 0 6 -9 24 -20 39 -15 21 -17 30
-8 33 8 4 7 6 -4 6 -21 1 -30 15 -22 35 4 10 13 14 23 12 9 -3 23 -1 31 4 17
10 30 4 30 -15z m2304 -15 c96 -36 139 -110 140 -235 0 -97 -52 -173 -156
-226 l-41 -21 60 -32 c57 -31 163 -103 163 -112 0 -11 -63 -104 -71 -104 -5 0
-18 18 -29 39 -24 49 -55 71 -96 71 -18 0 -66 20 -119 50 -49 27 -91 47 -93
45 -9 -8 20 -143 44 -201 27 -68 28 -74 14 -74 -5 0 -7 8 -4 18 5 15 4 15 -8
1 -21 -26 -97 -61 -118 -54 -23 7 -25 13 -44 140 -49 319 -38 570 28 624 36
30 181 72 258 75 9 0 14 4 12 8 -7 12 -1 10 60 -12z m-443 -2 c19 -6 42 -16
51 -23 16 -11 15 -14 -8 -48 -21 -31 -28 -36 -44 -27 -31 17 -105 12 -122 -7
-13 -15 -38 -82 -38 -103 0 -3 25 -6 56 -7 44 -1 62 -7 82 -25 18 -16 23 -18
19 -7 -4 13 -1 16 15 11 16 -4 19 -10 14 -35 -3 -16 -6 -35 -6 -42 0 -8 -16
-10 -55 -7 -119 10 -151 -15 -99 -77 27 -32 58 -43 48 -16 -5 12 5 15 55 15
46 0 61 -3 61 -14 0 -11 -9 -13 -34 -9 -19 3 -42 1 -52 -5 -18 -10 -18 -11 0
-18 10 -4 21 -3 25 2 17 24 41 10 55 -33 9 -25 13 -49 10 -54 -10 -16 -113 -9
-172 11 -105 37 -135 95 -136 270 -1 96 1 110 28 163 36 75 70 97 152 97 34 0
76 -5 95 -12z m-1756 -15 c-2 -10 -4 -21 -4 -25 -1 -10 -31 -11 -31 -1 0 6 30
43 36 43 1 0 1 -8 -1 -17z m1099 -13 c22 -8 77 -78 89 -114 2 -6 16 4 31 22
15 17 33 32 39 32 7 0 23 9 37 20 57 45 108 9 141 -102 17 -56 21 -88 17 -173
-2 -57 -7 -107 -10 -111 -4 -4 -32 4 -63 16 l-56 23 8 56 c14 95 6 191 -16
191 -5 0 -21 -20 -35 -45 -15 -25 -40 -52 -57 -61 -28 -14 -33 -14 -62 3 -18
10 -42 38 -54 61 -14 29 -24 39 -29 30 -16 -25 -16 -174 0 -266 9 -50 16 -96
16 -101 0 -13 -94 -43 -113 -35 -23 9 -32 77 -32 249 0 144 1 153 29 212 20
44 35 63 52 67 13 4 24 13 24 21 0 18 9 19 44 5z m426 1 c0 -5 -6 -14 -14 -20
-8 -6 -19 -25 -26 -41 l-12 -29 -33 33 c-18 18 -52 38 -77 45 -51 15 -72 8
-121 -37 l-27 -26 -29 35 -29 34 46 6 c76 10 322 10 322 0z m-920 -31 c15 -16
33 -43 40 -60 l12 -30 37 30 c20 17 41 35 47 40 6 4 28 13 48 18 53 15 89 -18
116 -105 27 -87 26 -293 -1 -293 -5 0 -33 11 -64 24 -54 24 -55 26 -44 53 20
54 13 213 -11 213 -4 0 -22 -22 -39 -48 -39 -61 -71 -78 -111 -57 -32 16 -70
61 -70 81 0 22 -17 16 -24 -8 -10 -41 -6 -181 9 -263 8 -44 15 -83 15 -87 0
-11 -96 -39 -113 -32 -25 9 -32 63 -32 239 0 142 3 166 23 216 30 76 48 90
120 98 8 0 26 -12 42 -29z m1095 -69 c-3 -6 -15 -16 -26 -21 -14 -8 -19 -7
-19 3 0 8 10 19 23 24 25 12 32 10 22 -6z m-1715 -30 c0 -3 -14 -7 -30 -8 -32
-2 -42 13 -12 19 19 5 42 -1 42 -11z m-70 -10 c0 -5 -10 -13 -22 -17 -13 -4
-47 -22 -76 -40 -61 -39 -66 -41 -52 -14 6 11 22 23 35 26 14 3 25 10 25 16 0
5 5 6 10 3 6 -3 13 1 16 9 3 9 10 13 15 10 5 -3 9 0 9 5 0 6 9 11 20 11 11 0
20 -4 20 -9z m1849 -12 c22 -8 31 -17 28 -28 -2 -9 -10 -14 -18 -12 -8 2 -35
6 -61 9 -43 4 -46 6 -37 23 11 22 41 24 88 8z m-1793 -114 c-1 -59 -5 -93 -11
-91 -5 3 -47 17 -92 31 -45 14 -85 31 -89 37 -11 17 49 67 111 93 33 14 65 25
71 25 7 0 10 -34 10 -95z m814 30 c0 -19 -9 -29 -41 -43 -23 -11 -51 -17 -63
-13 -20 5 -19 6 4 9 13 2 38 19 55 38 36 40 45 42 45 9z m540 0 c0 -20 -82
-63 -106 -55 -18 7 -18 7 2 14 11 3 36 20 54 36 33 29 50 31 50 5z m-190 -20
c0 -15 -15 -35 -26 -35 -9 0 -14 11 -14 30 0 28 2 30 20 20 11 -6 20 -12 20
-15z m-528 2 c15 -12 15 -14 -3 -25 -29 -19 -44 -14 -45 13 -2 28 19 33 48 12z
m175 -54 c-3 -10 -11 -42 -17 -71 -15 -65 -12 -69 80 -107 80 -33 81 -34 90
-85 6 -34 4 -42 -10 -50 -20 -11 -70 -105 -70 -132 0 -35 -16 -17 -29 31 -25
99 -87 168 -172 191 l-36 10 -11 82 c-7 46 -12 95 -12 110 l0 26 41 -20 c46
-22 87 -18 115 13 21 24 37 25 31 2z m533 10 c0 -5 -7 -35 -14 -68 -9 -35 -11
-66 -6 -75 5 -8 45 -30 89 -49 76 -32 82 -33 100 -17 16 14 20 15 30 2 10 -12
5 -18 -31 -34 -51 -23 -81 -54 -103 -106 l-16 -38 -22 20 c-28 27 -70 42 -112
42 -25 0 -43 -9 -70 -35 l-37 -34 -24 27 c-13 15 -24 30 -24 33 0 3 18 11 39
18 21 6 41 18 45 26 3 8 -1 45 -9 82 -7 37 -17 99 -20 136 l-7 68 45 -22 c49
-24 81 -21 112 10 21 21 35 26 35 14z m468 -27 c3 -3 -20 -6 -51 -6 -31 0 -57
-4 -57 -10 0 -15 -27 -12 -33 4 -3 8 -3 16 -1 19 7 7 134 0 142 -7z m552 -35
c0 -14 -95 -111 -108 -111 -18 0 -3 26 22 39 12 7 35 28 51 47 30 36 35 40 35
25z m-832 -84 c4 -19 -30 -39 -52 -31 -20 8 -20 10 2 32 20 22 46 22 50 -1z
m-1098 -24 c0 -14 -3 -24 -6 -20 -3 3 -30 -10 -59 -29 -53 -33 -125 -47 -125
-24 0 6 11 10 24 10 39 0 74 17 111 55 43 42 55 44 55 8z m6 -141 c2 -7 17
-18 34 -23 35 -13 34 -10 14 -57 -9 -20 -29 -86 -44 -147 -23 -88 -32 -110
-47 -112 -10 0 -38 -8 -62 -17 -24 -9 -56 -16 -72 -16 -26 0 -29 3 -29 35 0
78 58 152 111 141 36 -7 54 11 68 66 19 81 16 96 -26 114 -45 19 -126 14 -175
-10 -40 -20 -38 -21 -38 17 l0 33 63 -4 c53 -3 72 0 114 21 28 15 54 34 58 44
6 14 10 8 18 -27 5 -25 11 -51 13 -58z m1293 74 c92 -48 106 -226 25 -316 -41
-45 -121 -82 -181 -83 -41 0 -43 -1 -43 -31 0 -17 11 -61 23 -97 l23 -67 -51
-25 c-42 -21 -52 -22 -63 -11 -20 22 -42 165 -49 316 -8 174 3 218 61 258 23
16 50 37 61 47 10 10 26 21 35 25 24 12 124 2 159 -16z m-1513 -8 c4 -6 3 -8
-3 -5 -5 3 -22 -1 -37 -9 -36 -18 -36 -18 -36 6 0 16 7 20 34 20 19 0 38 -5
42 -12z m924 -20 c0 -13 -44 -38 -67 -38 -7 0 -13 7 -13 16 0 10 6 14 15 10 8
-3 15 -1 15 5 0 6 7 9 15 5 8 -3 15 -1 15 4 0 6 5 10 10 10 6 0 10 -6 10 -12z
m935 -5 c16 -13 17 -15 3 -10 -10 4 -18 2 -18 -3 0 -6 -9 -10 -20 -10 -19 0
-27 20 -13 33 10 11 26 8 48 -10z m-1037 -46 c26 -15 82 -94 82 -117 0 -9 11
-3 28 17 37 40 88 66 118 60 13 -2 25 1 27 7 7 19 44 -22 69 -77 20 -46 23
-67 23 -184 0 -72 -3 -134 -6 -137 -3 -4 -32 5 -63 19 l-57 25 8 48 c11 62 8
164 -4 187 -9 16 -12 15 -29 -10 -43 -60 -77 -95 -96 -95 -38 0 -79 31 -98 73
l-19 41 -10 -27 c-15 -40 -14 -146 4 -252 8 -50 15 -95 15 -101 0 -14 -104
-47 -108 -34 -2 6 -8 8 -12 5 -15 -9 -24 83 -25 240 0 138 2 154 25 205 13 30
32 61 42 68 10 7 18 19 18 27 0 25 34 31 68 12z m1042 -7 c0 -5 12 -2 28 6 31
16 89 18 125 5 27 -11 57 -61 57 -97 0 -12 -12 -32 -26 -43 -31 -25 -56 -28
-48 -6 4 9 0 15 -10 15 -18 0 -20 13 -6 40 7 13 7 21 -1 26 -18 10 -119 14
-119 4 0 -5 10 -8 23 -8 64 4 88 -2 83 -19 -3 -10 -7 -32 -8 -49 -1 -17 -8
-31 -15 -31 -7 0 -13 3 -13 7 0 4 -11 5 -25 2 -14 -2 -25 -9 -25 -15 0 -5 -9
-2 -20 8 -22 20 -25 46 -10 75 7 13 7 21 0 25 -6 4 -8 10 -5 15 3 5 1 11 -5
15 -17 10 -12 45 5 39 8 -4 15 -10 15 -14z m320 -49 c0 -5 -7 -16 -15 -25 -8
-8 -15 -19 -15 -24 0 -10 -30 -25 -36 -19 -2 2 9 16 24 32 15 16 26 33 25 37
-2 5 2 8 7 8 6 0 10 -4 10 -9z m-535 -93 c4 -24 13 -47 19 -51 7 -6 4 -6 -8
-3 -10 4 -25 1 -32 -5 -7 -6 -17 -8 -22 -5 -11 7 -3 64 11 73 6 4 7 1 2 -7 -5
-8 -4 -11 3 -7 5 4 8 16 5 27 -3 11 -1 20 5 20 6 0 13 -19 17 -42z m-1540 2
c-3 -5 -12 -10 -19 -10 -7 0 -25 -9 -40 -21 -30 -24 -33 -18 -8 16 16 24 81
38 67 15z m1947 -40 c10 -27 10 -27 -23 -35 -21 -5 -28 -1 -39 22 -8 15 -16
31 -18 34 -1 3 14 5 35 4 28 -2 39 -8 45 -25z m-228 4 c8 -22 9 -21 -23 -27
-16 -3 -36 -13 -44 -22 -20 -19 -44 -19 -64 1 -13 12 -13 15 -2 13 22 -3 79
13 79 22 0 5 7 9 15 9 8 0 15 5 15 10 0 16 17 12 24 -6z m-796 -56 c4 -19 -56
-58 -87 -58 -12 0 -37 7 -56 14 -21 9 -35 11 -35 5 0 -17 -43 -5 -46 13 -3 24
26 31 47 12 21 -19 89 -36 89 -22 0 5 4 7 9 4 5 -4 20 7 33 23 24 31 41 35 46
9z m530 -45 c-44 -46 -68 -59 -68 -37 0 10 3 15 6 12 3 -3 19 7 35 23 16 16
34 29 39 29 6 0 9 3 9 8 -1 4 0 14 1 22 2 11 4 10 7 -4 3 -11 -7 -31 -29 -53z
m516 28 c15 -27 14 -29 -7 -35 -35 -9 -37 -8 -37 29 0 44 23 47 44 6z m-2200
-30 c3 -5 -14 -11 -39 -13 -43 -3 -59 5 -32 15 21 9 66 7 71 -2z m-6 -48 c-2
-11 -14 -19 -31 -21 -22 -3 -27 1 -27 17 0 17 6 21 31 21 24 0 30 -4 27 -17z
m1557 -13 c-3 -5 -17 -10 -31 -10 -14 0 -23 -4 -19 -9 3 -6 -4 -15 -15 -21
-26 -14 -24 7 4 33 20 18 72 24 61 7z m515 1 c0 -5 14 -12 30 -16 17 -4 30
-13 30 -21 0 -19 -17 -18 -29 4 -6 9 -11 11 -11 5 0 -7 -10 -13 -21 -13 -16 0
-20 5 -16 20 3 11 1 18 -4 14 -5 -3 -9 0 -9 5 0 6 7 11 15 11 8 0 15 -4 15 -9z
m-2140 -15 c0 -23 52 -31 67 -10 9 12 16 15 23 8 7 -7 0 -19 -19 -38 l-29 -28
-31 31 c-17 17 -32 31 -34 31 -4 0 -5 -5 -16 -90 l-8 -65 -1 65 c-2 45 3 72
14 88 17 25 34 29 34 8z m30 -78 c0 -4 -14 -22 -31 -40 l-31 -33 6 34 c3 18 6
47 6 64 l0 30 25 -23 c14 -13 25 -27 25 -32z m79 15 c-1 -34 -2 -35 -9 -13 -6
20 -8 15 -9 -25 l-1 -50 -21 34 -20 34 27 28 c15 16 29 29 31 29 2 0 3 -17 2
-37z m461 12 c0 -9 -11 -21 -25 -27 -14 -6 -25 -19 -25 -29 0 -18 -17 -35 -26
-26 -6 6 29 67 39 67 4 0 7 7 7 15 0 8 7 15 15 15 8 0 15 -7 15 -15z m822 -37
c10 -27 -2 -38 -27 -26 -23 10 -23 12 -7 24 22 17 29 17 34 2z m-1318 -55 c14
-27 25 -41 26 -33 0 12 2 12 13 1 10 -11 10 -14 0 -18 -7 -3 -13 -11 -13 -19
0 -8 -7 -14 -15 -14 -8 0 -15 9 -15 20 0 11 -4 20 -9 20 -12 0 -22 43 -12 50
5 3 3 11 -5 18 -8 7 -14 9 -15 5 0 -4 -2 -27 -5 -50 -5 -37 -3 -42 18 -46 18
-3 15 -5 -9 -6 -23 -1 -33 3 -33 14 0 8 -5 15 -11 15 -5 0 -8 -4 -5 -9 3 -5
-1 -12 -10 -15 -12 -5 -14 -1 -8 17 10 33 60 97 76 97 4 0 19 -21 32 -47z
m386 27 c13 -9 13 -10 -5 -10 -3 0 -21 -6 -40 -14 -22 -10 -37 -11 -41 -5 -7
12 -7 11 26 26 32 15 41 15 60 3z m-610 -50 c0 -38 -12 -52 -25 -30 -3 6 -23
10 -43 10 -44 0 -57 8 -66 38 -7 21 -5 22 63 22 l71 0 0 -40z m500 16 c-6 -6
-29 -9 -51 -7 -28 2 -39 -1 -35 -8 10 -15 1 -14 -12 2 -9 10 -3 14 26 15 20 2
38 5 40 7 2 2 12 3 23 2 12 -1 15 -5 9 -11z m494 -1 c3 -8 0 -15 -7 -15 -7 0
-23 -3 -36 -7 -16 -4 -22 -3 -18 5 4 5 1 13 -5 16 -7 4 -3 4 9 2 13 -2 26 0
29 5 8 14 21 11 28 -6z m186 -48 c0 -29 -80 -48 -110 -26 -11 8 -4 9 28 5 33
-5 42 -3 42 8 0 8 8 17 18 19 9 3 18 5 20 6 1 0 2 -5 2 -12z m540 -1 c0 -8
-63 -36 -81 -36 -10 0 -21 5 -25 12 -5 7 -2 9 8 5 9 -3 24 1 35 8 16 13 63 21
63 11z m-1512 -38 c-6 -17 -50 -17 -55 0 -3 8 6 12 27 12 21 0 30 -4 28 -12z"/>
<path d="M1823 1393 c20 -2 54 -2 75 0 20 2 3 4 -38 4 -41 0 -58 -2 -37 -4z"/>
<path d="M569 720 c-4 -25 -10 -54 -13 -65 -3 -11 1 -5 9 14 9 18 15 48 13 65
-3 27 -4 25 -9 -14z"/>
<path d="M2585 1201 c-89 -22 -105 -49 -105 -177 0 -106 10 -134 45 -120 12 4
15 24 15 89 0 67 3 87 18 100 20 18 98 40 112 32 15 -9 12 -93 -5 -125 -9 -17
-37 -42 -63 -57 -67 -40 -70 -73 -3 -38 68 35 117 131 109 215 -8 81 -39 101
-123 81z m50 -31 c3 -5 -2 -10 -12 -10 -17 0 -29 -6 -82 -38 -18 -11 -20 -10
-15 3 6 14 40 39 56 40 3 0 10 3 14 8 10 10 32 9 39 -3z"/>
<path d="M2443 1020 c0 -36 2 -50 4 -32 2 17 2 47 0 65 -2 17 -4 3 -4 -33z"/>
<path d="M1023 1035 c0 -38 2 -53 4 -32 2 20 2 52 0 70 -2 17 -4 1 -4 -38z"/>
<path d="M2067 654 c-34 -18 -47 -50 -47 -112 0 -74 8 -94 38 -90 22 3 25 8
28 57 4 62 8 68 53 77 l34 7 -6 -39 c-4 -27 -16 -47 -38 -66 -36 -30 -36 -40
-1 -31 44 11 81 119 62 178 -11 33 -14 35 -53 35 -23 -1 -55 -8 -70 -16z m73
-17 c0 -7 -15 -19 -32 -27 -18 -7 -37 -15 -41 -18 -5 -2 -4 5 2 17 7 13 21 21
36 21 14 0 25 5 25 10 0 6 2 10 5 10 3 0 5 -6 5 -13z"/>
<path d="M2254 524 c-4 -16 -21 -47 -37 -69 l-31 -40 32 29 c30 28 60 91 48
103 -3 3 -8 -8 -12 -23z"/>
<path d="M1715 552 c-12 -8 -58 -70 -69 -92 -4 -8 3 -2 16 13 13 16 35 42 50
58 25 27 26 38 3 21z"/>
<path d="M1853 395 c0 -87 1 -98 7 -55 3 30 3 80 0 110 -6 43 -7 31 -7 -55z"/>
<path d="M1463 410 c0 -36 2 -50 4 -32 2 17 2 47 0 65 -2 17 -4 3 -4 -33z"/>
<path d="M1471 304 c1 -21 5 -50 9 -64 5 -16 6 -2 3 35 -7 69 -13 86 -12 29z"/>
<path d="M991 1839 c-16 -10 -34 -27 -40 -37 -19 -36 11 -121 49 -142 18 -10
17 -13 -25 -55 -26 -25 -56 -45 -72 -47 -14 -2 -28 -10 -30 -18 -4 -13 -3 -13
6 0 6 9 11 10 11 3 0 -6 -19 -27 -41 -47 -29 -24 -40 -40 -35 -51 8 -21 30
-14 34 11 5 24 105 119 143 134 21 9 38 9 66 1 l38 -10 -43 5 -43 6 1 -39 c0
-21 -2 -77 -6 -124 -5 -60 -3 -92 6 -109 10 -18 14 -20 21 -9 5 8 6 22 3 32
-13 42 21 166 40 147 2 -3 13 -45 22 -93 9 -48 21 -87 25 -87 17 0 21 48 14
171 -6 126 -6 129 14 129 23 0 52 -39 56 -73 1 -12 3 -26 4 -31 1 -11 31 13
31 25 0 5 -8 18 -17 28 -10 11 -29 33 -43 50 -23 29 -49 44 -34 19 5 -8 0 -9
-14 -6 -12 4 -22 2 -22 -3 0 -5 -27 -8 -59 -7 -49 2 -56 4 -43 14 9 7 30 10
48 7 21 -4 36 0 49 13 10 10 27 20 39 21 31 5 46 31 46 78 0 65 -28 89 -122
104 -38 6 -54 4 -77 -10z m96 -78 c17 0 38 -8 47 -16 8 -8 20 -15 27 -15 7 0
-6 -18 -29 -40 -22 -22 -50 -40 -60 -40 -36 0 -90 29 -98 52 -16 47 0 68 50
63 17 -1 45 -3 63 -4z m27 -204 c3 -12 -3 -19 -20 -23 -35 -9 -74 3 -74 24 0
25 87 25 94 -1z"/>
<path d="M760 1355 c0 -24 -31 -31 -46 -10 -13 18 -14 18 -14 -4 0 -12 4 -19
10 -16 6 3 10 2 10 -3 0 -16 -13 -22 -27 -11 -9 8 -13 8 -13 1 0 -6 8 -15 17
-21 14 -7 15 -12 4 -25 -13 -15 -8 -36 10 -36 5 0 9 7 9 15 0 8 5 15 11 15 6
0 8 7 5 16 -10 27 4 34 25 13 13 -13 18 -27 14 -40 -4 -12 -2 -19 7 -19 8 0
13 12 14 30 1 17 -3 30 -7 30 -5 0 -9 7 -9 16 0 14 3 14 16 3 14 -12 44 -61
44 -73 0 -3 -8 -3 -17 0 -15 5 -16 4 -3 -5 12 -9 13 -11 1 -11 -8 0 -11 -3 -8
-6 4 -4 18 1 32 10 19 13 24 21 16 30 -7 9 -7 16 2 26 10 10 9 12 -4 7 -14 -5
-46 29 -41 45 1 4 -7 10 -18 13 -11 4 -20 11 -20 16 0 5 -4 9 -10 9 -5 0 -10
-7 -10 -15z"/>
<path d="M593 1035 c0 -33 2 -45 4 -27 2 18 2 45 0 60 -2 15 -4 0 -4 -33z"/>
<path d="M1071 582 c-17 -44 -33 -99 -36 -123 -4 -32 1 -21 18 36 13 44 31 98
40 119 10 22 15 41 13 43 -2 2 -18 -31 -35 -75z"/>
<path d="M1126 613 c-12 -25 -45 -131 -59 -190 -5 -21 -1 -23 32 -23 38 0 38
0 51 57 13 60 23 57 33 -9 5 -31 2 -37 -16 -42 -18 -4 -19 -8 -9 -18 11 -11
15 -10 23 5 6 9 17 17 24 17 9 0 15 9 15 23 0 53 -53 207 -71 207 -5 0 -15
-12 -23 -27z m43 -55 c6 -17 3 -26 -13 -39 -28 -23 -39 -10 -25 29 13 37 26
41 38 10z"/>
<path d="M713 570 c-28 -17 -74 -84 -73 -107 1 -4 8 6 17 22 21 41 43 65 78
86 17 11 26 19 20 19 -5 0 -24 -9 -42 -20z"/>
<path d="M411 383 c0 -22 -6 -33 -16 -33 -8 0 -15 -4 -15 -10 0 -5 -7 -10 -15
-10 -10 0 -15 -10 -15 -30 0 -20 5 -30 15 -30 10 0 15 10 15 29 0 18 8 34 21
42 15 11 20 22 16 44 l-4 30 -2 -32z"/>
</g>
</svg>
